<svg width="48" height="48" viewBox="0 0 48 48" fill="none" xmlns="http://www.w3.org/2000/svg">
<path fill-rule="evenodd" clip-rule="evenodd" d="M30.532 14.928L33.4893 10.605C30.7399 10.8028 27.4669 11.4493 24.3168 12.3606C22.0674 13.0114 19.5679 12.912 17.2519 12.4846C16.6637 12.3761 16.0828 12.2456 15.5151 12.0987L17.4355 14.9257C21.5503 16.3907 26.4164 16.3914 30.532 14.928ZM16.2809 16.6302C21.0964 18.4906 26.8834 18.4899 31.6982 16.6283C33.602 18.6233 35.3942 21.1329 36.6865 23.7708C38.038 26.5295 38.7738 29.2859 38.6538 31.6622C38.5379 33.9552 37.6359 35.9145 35.5764 37.3696C33.4288 38.8869 29.8186 39.9971 24.0389 39.9971C18.2541 39.9971 14.6258 38.9058 12.4593 37.4056C10.384 35.9685 9.4731 34.0366 9.34374 31.7738C9.20938 29.4234 9.92879 26.6809 11.2759 23.9044C12.5609 21.2562 14.3545 18.7072 16.2809 16.6302ZM15.1314 9.91633C15.9312 10.1542 16.7668 10.3614 17.6148 10.5178C19.7644 10.9145 21.9215 10.9715 23.761 10.4394C25.9068 9.81864 28.1514 9.30397 30.2903 8.96795C28.4502 8.4139 26.2994 8 24.0389 8C20.5941 8 17.3811 8.96102 15.1314 9.91633ZM13.1531 8.62149C15.6074 7.41991 19.6324 6 24.0389 6C28.3536 6 32.2732 7.36139 34.7143 8.54616C34.7606 8.56864 34.8064 8.59106 34.8517 8.6134C35.588 8.97698 36.1814 9.32094 36.5999 9.6L32.906 15C41.4216 23.7055 48 41.9971 24.0389 41.9971C0.0778027 41.9971 6.47852 24.0384 15.0682 15L11.3999 9.6C11.6819 9.41472 12.0415 9.20082 12.4692 8.97158C12.6808 8.85811 12.9092 8.74087 13.1531 8.62149Z" fill="#333333"/>
<path fill-rule="evenodd" clip-rule="evenodd" d="M23 24C21.8954 24 21 24.8954 21 26C21 27.1046 21.8954 28 23 28H25C27.2091 28 29 29.7909 29 32C29 34.2091 27.2091 36 25 36H23C21.2568 36 19.7765 34.8855 19.2279 33.3332C19.0438 32.8125 19.3167 32.2412 19.8375 32.0572C20.3582 31.8731 20.9295 32.146 21.1135 32.6668C21.3886 33.4449 22.1308 34 23 34H25C26.1046 34 27 33.1046 27 32C27 30.8954 26.1046 30 25 30H23C20.7909 30 19 28.2091 19 26C19 23.7909 20.7909 22 23 22H25C26.7432 22 28.2235 23.1145 28.7721 24.6668C28.9562 25.1875 28.6833 25.7588 28.1625 25.9428C27.6418 26.1269 27.0705 25.854 26.8865 25.3332C26.6114 24.5551 25.8693 24 25 24H23Z" fill="#333333"/>
<path fill-rule="evenodd" clip-rule="evenodd" d="M23 37V21H25V37H23Z" fill="#333333"/>
</svg>
