<svg width="48" height="48" viewBox="0 0 48 48" fill="none" xmlns="http://www.w3.org/2000/svg">
<path fill-rule="evenodd" clip-rule="evenodd" d="M20.3879 5.53462C22.3567 3.48846 25.6433 3.48846 27.6121 5.53462L28.1398 6.0831H33.3302C35.903 6.0831 38 8.1569 38 10.7289V15H36V10.7289C36 9.27385 34.8109 8.0831 33.3302 8.0831H27.7143C27.4424 8.0831 27.1822 7.97238 26.9937 7.77645L26.1709 6.92133C24.9889 5.69289 23.0111 5.69289 21.8291 6.92133L21.0063 7.77645C20.8178 7.97238 20.5576 8.0831 20.2857 8.0831H15C13.3369 8.0831 12 9.4207 12 11.0569V33.0262C12 34.6624 13.3369 36 15 36H33C34.6631 36 36 34.6624 36 33.0262V23H38V33.0262C38 35.7794 35.7552 38 33 38H15C12.2448 38 10 35.7793 10 33.0262V11.0569C10 8.30376 12.2448 6.0831 15 6.0831H19.8602L20.3879 5.53462Z" fill="#333333"/>
<path fill-rule="evenodd" clip-rule="evenodd" d="M23 44V36H25V44H23Z" fill="#333333"/>
<path fill-rule="evenodd" clip-rule="evenodd" d="M30 40H18V38H30V40Z" fill="#333333"/>
<path fill-rule="evenodd" clip-rule="evenodd" d="M34.0689 28.6418C32.7749 27.8888 30.9145 27.4415 28.5081 28.8612C25.551 30.6059 22.766 31.0586 19.9243 31.119C18.6899 31.1453 17.4295 31.0974 16.1531 31.049C15.9779 31.0423 15.8025 31.0357 15.6267 31.0292C14.1588 30.975 12.6498 30.9321 11.0416 30.9991L10.9584 29.0008C12.6501 28.9303 14.2255 28.9761 15.7005 29.0306C15.8789 29.0371 16.0556 29.0438 16.2306 29.0505C17.5141 29.0991 18.7109 29.1444 19.8818 29.1195C22.5089 29.0636 24.924 28.6537 27.4919 27.1387C30.6105 25.2987 33.2501 25.8513 35.0748 26.9132C35.9625 27.4298 36.6445 28.0561 37.1022 28.5472C37.3325 28.7943 37.5101 29.0115 37.6323 29.1703C37.6935 29.2498 37.7411 29.315 37.7749 29.3625C37.7917 29.3863 37.8051 29.4056 37.8151 29.4201L37.8273 29.4382L37.8315 29.4444L37.8338 29.4478C37.8341 29.4482 37.8343 29.4487 37 29.9999C36.1657 30.5511 36.1659 30.5515 36.1662 30.5519L36.1647 30.5497C36.1611 30.5445 36.1543 30.5347 36.1444 30.5208C36.1245 30.4928 36.0921 30.4482 36.0475 30.3903C35.9581 30.2741 35.821 30.1059 35.6392 29.9108C35.2727 29.5177 34.7407 29.0328 34.0689 28.6418Z" fill="#333333"/>
<path fill-rule="evenodd" clip-rule="evenodd" d="M25 14C25.5523 14 26 14.4477 26 15V18H29V15C29 14.4477 29.4477 14 30 14C30.5523 14 31 14.4477 31 15V23C31 23.5523 30.5523 24 30 24C29.4477 24 29 23.5523 29 23V20H26V23C26 23.5523 25.5523 24 25 24C24.4477 24 24 23.5523 24 23V15C24 14.4477 24.4477 14 25 14Z" fill="#333333"/>
<path fill-rule="evenodd" clip-rule="evenodd" d="M15 15C15 14.4477 15.4477 14 16 14H19.125C20.7726 14 22 15.4049 22 17C22 18.0964 21.4201 19.1029 20.5225 19.6252L21.9055 22.5756C22.1399 23.0756 21.9245 23.6711 21.4244 23.9055C20.9244 24.1399 20.3289 23.9245 20.0945 23.4244L18.4893 20H17V23C17 23.5523 16.5523 24 16 24C15.4477 24 15 23.5523 15 23V15ZM17 18H19.125C19.5484 18 20 17.6141 20 17C20 16.3859 19.5484 16 19.125 16H17V18Z" fill="#333333"/>
<path fill-rule="evenodd" clip-rule="evenodd" d="M32 19C32 18.4477 32.4477 18 33 18H37C37.5523 18 38 18.4477 38 19C38 19.5523 37.5523 20 37 20H33C32.4477 20 32 19.5523 32 19Z" fill="#333333"/>
<path fill-rule="evenodd" clip-rule="evenodd" d="M35 22C34.4477 22 34 21.5523 34 21V17C34 16.4477 34.4477 16 35 16C35.5523 16 36 16.4477 36 17V21C36 21.5523 35.5523 22 35 22Z" fill="#333333"/>
</svg>
