<svg width="48" height="48" viewBox="0 0 48 48" fill="none" xmlns="http://www.w3.org/2000/svg">
<path fill-rule="evenodd" clip-rule="evenodd" d="M28 8.3579C27.4625 8.3579 26.9475 8.14152 26.5714 7.75754L25.4393 6.60207C24.6529 5.79931 23.3471 5.79931 22.5607 6.60207L21.4286 7.75754C21.0525 8.14151 20.5375 8.3579 20 8.3579H14C12.8809 8.3579 12 9.25408 12 10.3273V34.0306C12 35.1038 12.8809 36 14 36H34C35.1191 36 36 35.1038 36 34.0306V10.3273C36 9.25408 35.1191 8.3579 34 8.3579H28ZM38 10.3273V34.0306C38 36.2228 36.2091 38 34 38H14C11.7909 38 10 36.2228 10 34.0306V10.3273C10 8.13507 11.7909 6.3579 14 6.3579H20L21.132 5.20243C22.7027 3.59919 25.2973 3.59919 26.868 5.20243L28 6.3579H34C36.2091 6.3579 38 8.13508 38 10.3273Z" fill="#333333"/>
<path fill-rule="evenodd" clip-rule="evenodd" d="M14 18C14 14.6863 16.6863 12 20 12C23.3137 12 26 14.6863 26 18C26 21.3137 23.3137 24 20 24C16.6863 24 14 21.3137 14 18ZM20 14C17.7909 14 16 15.7909 16 18C16 20.2091 17.7909 22 20 22C22.2091 22 24 20.2091 24 18C24 15.7909 22.2091 14 20 14Z" fill="#333333"/>
<path fill-rule="evenodd" clip-rule="evenodd" d="M27 18C27 17.4477 27.4477 17 28 17H33C33.5523 17 34 17.4477 34 18C34 18.5523 33.5523 19 33 19H28C27.4477 19 27 18.5523 27 18Z" fill="#333333"/>
<path fill-rule="evenodd" clip-rule="evenodd" d="M30.5 21.5C29.9477 21.5 29.5 21.0523 29.5 20.5V15.5C29.5 14.9477 29.9477 14.5 30.5 14.5C31.0523 14.5 31.5 14.9477 31.5 15.5V20.5C31.5 21.0523 31.0523 21.5 30.5 21.5Z" fill="#333333"/>
<path fill-rule="evenodd" clip-rule="evenodd" d="M23 44V36H25V44H23Z" fill="#333333"/>
<path fill-rule="evenodd" clip-rule="evenodd" d="M30 40H18V38H30V40Z" fill="#333333"/>
<path fill-rule="evenodd" clip-rule="evenodd" d="M34.0689 28.6419C32.7749 27.8889 30.9145 27.4415 28.5081 28.8613C25.551 30.606 22.766 31.0586 19.9243 31.1191C18.6899 31.1453 17.4295 31.0975 16.1531 31.049C15.9779 31.0424 15.8025 31.0357 15.6267 31.0292C14.1588 30.9751 12.6498 30.9321 11.0416 30.9991L10.9584 29.0009C12.6501 28.9304 14.2255 28.9762 15.7005 29.0306C15.8789 29.0372 16.0556 29.0439 16.2306 29.0505C17.5141 29.0991 18.7109 29.1444 19.8818 29.1195C22.5089 29.0636 24.924 28.6538 27.4919 27.1387C30.6105 25.2987 33.2501 25.8514 35.0748 26.9133C35.9625 27.4298 36.6445 28.0561 37.1022 28.5473C37.3325 28.7944 37.5101 29.0115 37.6323 29.1703C37.6935 29.2498 37.7411 29.3151 37.7749 29.3626C37.7917 29.3863 37.8051 29.4056 37.8151 29.4201L37.8273 29.4382L37.8315 29.4444L37.8338 29.4478C37.8341 29.4483 37.8343 29.4487 37 30C36.1657 30.5512 36.1659 30.5516 36.1662 30.552L36.1647 30.5498C36.1611 30.5446 36.1543 30.5348 36.1444 30.5208C36.1245 30.4928 36.0921 30.4482 36.0475 30.3903C35.9581 30.2742 35.821 30.1059 35.6392 29.9109C35.2727 29.5177 34.7407 29.0328 34.0689 28.6419Z" fill="#333333"/>
</svg>
