<svg width="48" height="48" viewBox="0 0 48 48" fill="none" xmlns="http://www.w3.org/2000/svg">
<path fill-rule="evenodd" clip-rule="evenodd" d="M27.9915 8.11433C27.4513 8.11433 26.934 7.89581 26.5575 7.50849L25.4254 6.34413C24.6401 5.53633 23.3428 5.53633 22.5575 6.34412L21.4254 7.50849C21.0489 7.89581 20.5317 8.11433 19.9915 8.11433H13.9915C12.8869 8.11433 11.9915 9.00976 11.9915 10.1143V34C11.9915 35.1046 12.8869 36 13.9915 36H33.9915C35.096 36 35.9915 35.1046 35.9915 34.0001V10.1143C35.9915 9.00976 35.096 8.11433 33.9915 8.11433H27.9915ZM37.9915 10.1143V34.0001C37.9915 36.2092 36.2006 38 33.9915 38H13.9915C11.7823 38 9.99146 36.2092 9.99146 34V10.1143C9.99146 7.90519 11.7823 6.11433 13.9915 6.11433H19.9915L21.1235 4.94997C22.6942 3.33439 25.2887 3.33439 26.8594 4.94997L27.9915 6.11433H33.9915C36.2006 6.11433 37.9915 7.90519 37.9915 10.1143Z" fill="#333333"/>
<path fill-rule="evenodd" clip-rule="evenodd" d="M26.9912 44V36H28.9912V44H26.9912Z" fill="#333333"/>
<path fill-rule="evenodd" clip-rule="evenodd" d="M33 40H15V38H33V40Z" fill="#333333"/>
<path fill-rule="evenodd" clip-rule="evenodd" d="M34.0604 28.6419C32.7664 27.8889 30.9059 27.4416 28.4996 28.8613C25.5425 30.606 22.7574 31.0587 19.9158 31.1191C18.6814 31.1454 17.4209 31.0975 16.1445 31.0491C15.9694 31.0424 15.7939 31.0358 15.6182 31.0293C14.1502 30.9751 12.6413 30.9322 11.0331 30.9992L10.9498 29.0009C12.6416 28.9304 14.2169 28.9762 15.6919 29.0306C15.8704 29.0372 16.047 29.0439 16.2221 29.0506C17.5055 29.0992 18.7024 29.1445 19.8733 29.1196C22.5004 29.0637 24.9154 28.6538 27.4833 27.1388C30.602 25.2988 33.2415 25.8514 35.0663 26.9133C35.9539 27.4299 36.6359 28.0561 37.0937 28.5473C37.324 28.7944 37.5015 29.0116 37.6238 29.1704C37.685 29.2499 37.7326 29.3151 37.7663 29.3626C37.7832 29.3864 37.7966 29.4057 37.8065 29.4202L37.8188 29.4383L37.823 29.4445L37.8252 29.4479C37.8255 29.4483 37.8258 29.4488 36.9915 30C36.1571 30.5512 36.1574 30.5516 36.1576 30.552L36.1561 30.5498C36.1525 30.5446 36.1458 30.5348 36.1358 30.5209C36.116 30.4929 36.0835 30.4483 36.0389 30.3904C35.9496 30.2742 35.8124 30.106 35.6306 29.9109C35.2642 29.5177 34.7321 29.0329 34.0604 28.6419Z" fill="#333333"/>
<path d="M17 39.9522C17 38.8476 17.8954 37.9522 19 37.9522H21C22.1046 37.9522 23 38.8476 23 39.9522C23 41.0568 22.1046 41.9522 21 41.9522H19C17.8954 41.9522 17 41.0568 17 39.9522Z" fill="#333333"/>
<path fill-rule="evenodd" clip-rule="evenodd" d="M32 11.4522H36.5V13.4522H32V11.4522Z" fill="#333333"/>
<path fill-rule="evenodd" clip-rule="evenodd" d="M32 16.4522H36.5V18.4522H32V16.4522Z" fill="#333333"/>
<path fill-rule="evenodd" clip-rule="evenodd" d="M32 21.4522H36.5V23.4522H32V21.4522Z" fill="#333333"/>
<path d="M26 9.95219C26 11.0568 25.1046 11.9522 24 11.9522C22.8954 11.9522 22 11.0568 22 9.95219C22 8.84762 22.8954 7.95219 24 7.95219C25.1046 7.95219 26 8.84762 26 9.95219Z" fill="#333333"/>
</svg>
