<svg width="48" height="48" viewBox="0 0 48 48" fill="none" xmlns="http://www.w3.org/2000/svg">
<path d="M26.078 30.7687L28.6137 36.2065L23.2413 38.7117C21.7397 39.4119 19.9548 38.7622 19.2546 37.2606C18.5543 35.759 19.204 33.9741 20.7056 33.2738L26.078 30.7687ZM13.9488 9.5038C14.3987 8.76751 15.5302 8.861 15.8572 9.63451L20.9209 21.6137C21.1962 22.265 20.686 23.0563 19.8535 22.9969L7.98707 22.1502C7.16332 22.0914 6.77323 21.2465 7.14611 20.6363L13.9488 9.5038ZM41 14C41 17.866 37.866 21 34 21C30.134 21 27 17.866 27 14C27 10.134 30.134 7 34 7C37.866 7 41 10.134 41 14ZM36.8596 16.7098C37.9361 16.9573 39.0094 16.2853 39.2569 15.2088C39.5044 14.1323 38.8323 13.059 37.7558 12.8115L31.1402 11.2906C30.0637 11.0431 28.9904 11.7152 28.7429 12.7916C28.4955 13.8681 29.1675 14.9414 30.244 15.1889L36.8596 16.7098Z" fill="#333333" stroke="#333333" stroke-width="2"/>
</svg>
