<svg width="48" height="48" viewBox="0 0 48 48" fill="none" xmlns="http://www.w3.org/2000/svg">
<path fill-rule="evenodd" clip-rule="evenodd" d="M27.9912 8.11433C27.451 8.11433 26.9338 7.89581 26.5572 7.50849L25.4252 6.34413C24.6398 5.53633 23.3426 5.53633 22.5572 6.34412L21.4252 7.50849C21.0486 7.89581 20.5314 8.11433 19.9912 8.11433H13.9912C12.8866 8.11433 11.9912 9.00976 11.9912 10.1143V34C11.9912 35.1046 12.8866 36 13.9912 36H33.9912C35.0958 36 35.9912 35.1046 35.9912 34.0001V10.1143C35.9912 9.00976 35.0958 8.11433 33.9912 8.11433H27.9912ZM37.9912 10.1143V34.0001C37.9912 36.2092 36.2003 38 33.9912 38H13.9912C11.7821 38 9.99121 36.2092 9.99121 34V10.1143C9.99121 7.90519 11.7821 6.11433 13.9912 6.11433H19.9912L21.1232 4.94997C22.6939 3.33439 25.2885 3.33439 26.8592 4.94997L27.9912 6.11433H33.9912C36.2003 6.11433 37.9912 7.90519 37.9912 10.1143Z" fill="#333333"/>
<path fill-rule="evenodd" clip-rule="evenodd" d="M26.9912 44V36H28.9912V44H26.9912Z" fill="#333333"/>
<path fill-rule="evenodd" clip-rule="evenodd" d="M33 40H15V38H33V40Z" fill="#333333"/>
<path d="M28 27.1222C22.475 30.7015 17.5999 29.0164 11 29.3183L11.0088 34.756L13.5088 36.9522H34.5088L37 34.756V29.3183C37 29.3183 33.525 23.5428 28 27.1222Z" fill="#333333"/>
<path fill-rule="evenodd" clip-rule="evenodd" d="M37 29.3183C37 29.3183 33.525 23.5428 28 27.1222C24.0225 29.699 20.3818 29.5474 16.192 29.373C14.5618 29.3051 12.8486 29.2337 11 29.3183L11.0088 34.756L13.5088 36.9522H34.5088L37 34.756V29.3183ZM35 33.853V29.9542C34.9538 29.8956 34.9024 29.8325 34.8459 29.766C34.5179 29.3796 34.0569 28.9223 33.495 28.5633C32.9402 28.2088 32.3315 27.977 31.6681 27.9541C31.0223 27.9318 30.1675 28.101 29.0874 28.8007C25.9219 30.8515 22.9258 31.3792 19.9498 31.4488C18.6772 31.4785 17.3786 31.4243 16.1062 31.3712C15.9312 31.3639 15.7566 31.3566 15.5827 31.3495C14.7302 31.315 13.8759 31.2852 13.0032 31.2804L13.0073 33.8496L14.2625 34.9522H33.7531L35 33.853Z" fill="#333333"/>
<path d="M17 39.9522C17 38.8476 17.8954 37.9522 19 37.9522H21C22.1046 37.9522 23 38.8476 23 39.9522C23 41.0568 22.1046 41.9522 21 41.9522H19C17.8954 41.9522 17 41.0568 17 39.9522Z" fill="#333333"/>
<path fill-rule="evenodd" clip-rule="evenodd" d="M32 11.4522H36.5V13.4522H32V11.4522Z" fill="#333333"/>
<path fill-rule="evenodd" clip-rule="evenodd" d="M32 16.4522H36.5V18.4522H32V16.4522Z" fill="#333333"/>
<path fill-rule="evenodd" clip-rule="evenodd" d="M32 21.4522H36.5V23.4522H32V21.4522Z" fill="#333333"/>
<path d="M26 9.95219C26 11.0568 25.1046 11.9522 24 11.9522C22.8954 11.9522 22 11.0568 22 9.95219C22 8.84762 22.8954 7.95219 24 7.95219C25.1046 7.95219 26 8.84762 26 9.95219Z" fill="#333333"/>
</svg>
