<svg width="48" height="48" viewBox="0 0 48 48" fill="none" xmlns="http://www.w3.org/2000/svg">
<path d="M30.9667 29.0316C31.211 29.0897 31.4557 29.1528 31.7004 29.2207C31.7017 29.2529 31.7029 29.2865 31.7039 29.3216C31.7166 29.7731 31.6914 30.3428 31.6343 30.9323C31.5978 31.3091 31.5503 31.674 31.497 32H31C30.2425 32 29.5499 32.428 29.2111 33.1055L28.2111 35.1055C28.0723 35.3833 28 35.6895 28 36V38C28 39.1045 28.8954 40 30 40H32H33H34H36C37.1046 40 38 39.1045 38 38V36C38 35.6895 37.9277 35.3833 37.7889 35.1055L36.7889 33.1055C36.5312 32.5903 36.0691 32.2194 35.5294 32.0712C35.5624 31.8227 35.5913 31.5697 35.6157 31.3176C35.6335 31.1336 35.6492 30.9468 35.6623 30.7594C37.0266 31.4565 38.2337 32.2756 39.1556 33.156C40.3862 34.3312 41 35.5058 41 36.5699V41H7V36.5699C7 35.4577 7.67155 34.2255 9.00752 33.0036C10.0428 32.0566 11.4026 31.1879 12.9214 30.473C12.9428 30.6908 12.9672 30.9083 12.9939 31.1226C13.0768 31.7866 13.1865 32.4542 13.3106 33.0392C12.5066 33.77 12 34.8255 12 36C12 38.2091 13.7909 40 16 40C18.2091 40 20 38.2091 20 36C20 34.2157 18.8324 32.7053 17.2193 32.1895C17.1245 31.7392 17.0337 31.1928 16.9632 30.6273C16.8941 30.0737 16.8487 29.5356 16.8341 29.0801C16.855 29.0749 16.8759 29.0697 16.8968 29.0646C16.9349 29.1336 16.9735 29.2101 17.0202 29.3033L17.0223 29.3074C17.0503 29.3633 17.0826 29.4277 17.1151 29.4896L17.3963 30.0237H18H22.0639H22.0642C22.9772 30.0235 23.4296 30.0236 23.8862 30.0237H23.8901H23.8928C24.3393 30.0238 24.7924 30.0239 25.6851 30.0237C25.6852 30.0237 25.6852 30.0237 25.6853 30.0237H29.7493H30.3529L30.6341 29.4896C30.7147 29.3365 30.8425 29.1512 30.965 29.0333C30.9656 29.0327 30.9662 29.0322 30.9667 29.0316ZM32 17C32 21.4202 28.4202 25 24 25C19.5798 25 16 21.4202 16 17C16 12.5798 19.5798 9 24 9C28.4202 9 32 12.5798 32 17Z" fill="#333333" stroke="#333333" stroke-width="2"/>
</svg>
