<svg width="48" height="48" viewBox="0 0 48 48" fill="none" xmlns="http://www.w3.org/2000/svg">
<path fill-rule="evenodd" clip-rule="evenodd" d="M13.2808 24.1815C13.4395 23.682 13.957 23.3897 14.4667 23.5118C15.7399 23.8166 17.3013 23.9999 19 23.9999C20.6987 23.9999 22.2601 23.8166 23.5333 23.5118C24.043 23.3897 24.5605 23.682 24.7192 24.1815C24.9018 24.7563 25 25.3676 25 26C25 29.3137 22.3137 32 19 32C15.6863 32 13 29.3137 13 26C13 25.3676 13.0982 24.7563 13.2808 24.1815ZM15.0136 25.6667C15.0046 25.7765 15 25.8876 15 26C15 28.2091 16.7909 30 19 30C21.2091 30 23 28.2091 23 26C23 25.8876 22.9954 25.7765 22.9864 25.6667C21.7761 25.8814 20.4224 25.9999 19 25.9999C17.5776 25.9999 16.2239 25.8814 15.0136 25.6667Z" fill="#333333"/>
<path fill-rule="evenodd" clip-rule="evenodd" d="M16 33.2261C11.5583 33.8253 6 35.5859 6 38.143V42.0001H10L10 38H12L12 42.0001H26V38H28V42.0001H32V38.143C32 35.5859 26.4417 33.8253 22 33.2261V36H16V33.2261Z" fill="#333333"/>
<path fill-rule="evenodd" clip-rule="evenodd" d="M14 33.5625C14.6766 33.4262 15.3503 33.3137 16 33.2261V36H22V33.2261C22.6497 33.3137 23.3234 33.4262 24 33.5625C27.9489 34.3574 32 35.9599 32 38.143V42.0001H28V38H26V42.0001H12L12 38H10L10 42.0001H6V38.143C6 35.9599 10.0511 34.3574 14 33.5625ZM14 35.6054C13.4588 35.7221 12.9221 35.8541 12.4026 36H14V35.6054ZM7.99122 38.2084C7.99088 38.2084 7.99172 38.2048 7.99474 38.1976C7.99306 38.2048 7.99155 38.2084 7.99122 38.2084ZM14 40.0001H24V38L14 38V40.0001ZM24 35.6054V36H25.5974C25.0779 35.8541 24.5412 35.7221 24 35.6054ZM30.0088 38.2084C30.0084 38.2084 30.0069 38.2048 30.0053 38.1976C30.0083 38.2048 30.0091 38.2084 30.0088 38.2084Z" fill="#333333"/>
<path fill-rule="evenodd" clip-rule="evenodd" d="M24.2403 19.5205C23.6875 17.8127 22.257 16.0884 20 15.6224V17C20 17.5523 19.5523 18 19 18C18.4477 18 18 17.5523 18 17V15.5549C15.6836 15.8917 14.3067 17.7221 13.7659 19.4693C13.649 20.0082 13.6073 20.5187 13.6298 20.9476C13.6587 21.4991 13.2351 21.9697 12.6836 21.9986C12.132 22.0276 11.6615 21.6039 11.6325 21.0524C11.6296 20.9968 11.6274 20.9406 11.626 20.8836C10.9097 21.4332 10.5 22.0705 10.5 22.75C10.5 24.8211 14.3056 26.5 19 26.5C23.6944 26.5 27.5 24.8211 27.5 22.75C27.5 22.0679 27.0872 21.4283 26.3657 20.8772C26.3641 20.9376 26.3616 20.9972 26.3583 21.0559C26.3274 21.6074 25.8554 22.0293 25.3039 21.9984C24.7525 21.9675 24.3306 21.4955 24.3615 20.944C24.3847 20.5299 24.3477 20.0393 24.2403 19.5205Z" fill="#333333"/>
<path d="M29.5 19.5V6.5H33.5V13L37.5 9.28571V13L41.5 9.28571V19.5H29.5Z" fill="#333333"/>
<path fill-rule="evenodd" clip-rule="evenodd" d="M29 6.5C29 6.22386 29.2239 6 29.5 6H33.5C33.7761 6 34 6.22386 34 6.5V11.8534L37.1598 8.91932C37.3055 8.784 37.5176 8.7479 37.6999 8.82739C37.8821 8.90689 38 9.08685 38 9.28571V11.8534L41.1598 8.91932C41.3055 8.784 41.5176 8.7479 41.6999 8.82739C41.8821 8.90689 42 9.08685 42 9.28571V19.5C42 19.7761 41.7761 20 41.5 20H29.5C29.2239 20 29 19.7761 29 19.5V6.5ZM30 7V19H41V10.4323L37.8402 13.3664C37.6945 13.5017 37.4824 13.5378 37.3001 13.4583C37.1179 13.3788 37 13.1989 37 13V10.4323L33.8402 13.3664C33.6945 13.5017 33.4824 13.5378 33.3001 13.4583C33.1179 13.3788 33 13.1989 33 13V7H30Z" fill="#333333"/>
</svg>
