<svg width="48" height="48" viewBox="0 0 48 48" fill="none" xmlns="http://www.w3.org/2000/svg">
<path fill-rule="evenodd" clip-rule="evenodd" d="M17.9583 5C21.2951 5 24 7.70495 24 11.0417C24 18.5417 13.2 20 13.2 20V17.0833H12.0417C8.70495 17.0833 6 14.3784 6 11.0417C6 7.70495 8.70495 5 12.0417 5H17.9583ZM26 12.0417C26 8.70495 28.7049 6 32.0417 6H35.9583C39.2951 6 42 8.70495 42 12.0417C42 15.3784 39.2951 18.0833 35.9583 18.0833H35.6V21C35.6 21 26 19.5417 26 12.0417ZM18 28C18 30.7625 15.7625 33 13 33C10.2375 33 8 30.7625 8 28C8 25.2375 10.2375 23 13 23C15.7625 23 18 25.2375 18 28ZM3 40.3333C3 36.7867 9.6625 35 13 35C16.3375 35 23 36.7867 23 40.3333V43H3V40.3333ZM35 33C37.7625 33 40 30.7625 40 28C40 25.2375 37.7625 23 35 23C32.2375 23 30 25.2375 30 28C30 30.7625 32.2375 33 35 33ZM28 27C28 29.21 26.21 31 24 31C21.79 31 20 29.21 20 27C20 24.79 21.79 23 24 23C26.21 23 28 24.79 28 27ZM35 35C31.6625 35 25 36.7867 25 40.3333V43H45V40.3333C45 36.7867 38.3375 35 35 35ZM28.7508 34.185C28.4839 34.2831 28.2206 34.3873 27.9625 34.4975C26.7914 34.998 25.6088 35.6741 24.69 36.5785C24.444 36.8208 24.2105 37.0864 24 37.375C23.7895 37.0864 23.556 36.8208 23.3099 36.5785C22.3912 35.6741 21.2085 34.998 20.0374 34.4975C19.7794 34.3873 19.5161 34.2831 19.2491 34.185C20.7717 33.3961 22.7298 33 24 33C25.2701 33 27.2282 33.3961 28.7508 34.185Z" fill="#333333"/>
</svg>
