<svg width="48" height="48" viewBox="0 0 48 48" fill="none" xmlns="http://www.w3.org/2000/svg">
<path fill-rule="evenodd" clip-rule="evenodd" d="M18.1153 18.8227C18.0397 19.2027 18 19.5963 18 20C18 23.3137 20.6863 26 24 26C27.3137 26 30 23.3137 30 20C30 19.5963 29.9603 19.2027 29.8847 18.8227C25.7458 17.821 22.2542 17.821 18.1153 18.8227ZM17.0383 17.0311C21.9546 15.7515 26.0454 15.7515 30.9617 17.0311C31.3004 17.1193 31.5683 17.3781 31.6682 17.7135C31.8843 18.4392 32 19.207 32 20C32 24.4183 28.4183 28 24 28C19.5817 28 16 24.4183 16 20C16 19.207 16.1157 18.4392 16.3318 17.7135C16.4317 17.3781 16.6996 17.1193 17.0383 17.0311Z" fill="#333333"/>
<path fill-rule="evenodd" clip-rule="evenodd" d="M32.644 42H42V36.5C42 34.4959 39.3372 32.8578 35.7257 31.7276L32.644 42ZM33.7981 31.193C30.4777 30.3794 26.6788 29.9544 23.4706 30.0066C16.2579 30.1242 6 32.4407 6 36.5V42H30.556L33.7981 31.193ZM12.1056 35.5528C12.3526 35.0588 12.9532 34.8586 13.4472 35.1056L15 35.882L16.5528 35.1056C17.0468 34.8586 17.6474 35.0588 17.8944 35.5528C18.1414 36.0468 17.9412 36.6474 17.4472 36.8944L15.4472 37.8944C15.1657 38.0352 14.8343 38.0352 14.5528 37.8944L12.5528 36.8944C12.0588 36.6474 11.8586 36.0468 12.1056 35.5528Z" fill="#333333"/>
<path fill-rule="evenodd" clip-rule="evenodd" d="M12.5889 27.9965C12.8362 28.4904 12.6362 29.0912 12.1424 29.3384L8.44766 31.1882C7.95382 31.4354 7.35304 31.2355 7.10579 30.7417C6.85854 30.2478 7.05845 29.6471 7.5523 29.3998L11.247 27.55C11.7409 27.3028 12.3417 27.5027 12.5889 27.9965Z" fill="#333333"/>
<path fill-rule="evenodd" clip-rule="evenodd" d="M40 9H42V30H40V9Z" fill="#333333"/>
<path d="M35 24L42 20V32L35 29V24Z" fill="#333333"/>
<path fill-rule="evenodd" clip-rule="evenodd" d="M37 25.1606V27.6812L40 28.9669V23.4464L37 25.1606ZM35 24V29L42 32V20L35 24Z" fill="#333333"/>
<path fill-rule="evenodd" clip-rule="evenodd" d="M14.4167 16C14.4167 10.4772 18.7073 6 24 6C29.2927 6 33.5833 10.4772 33.5833 16C33.5833 16.5762 34.2196 17.8162 34.7589 18.7639C34.9936 19.1763 34.5825 19.6866 34.1308 19.5415C26.6961 17.1528 21.3039 17.1528 13.8692 19.5415C13.4175 19.6866 13.0064 19.1763 13.2411 18.7639C13.7804 17.8162 14.4167 16.5762 14.4167 16ZM24.1716 9.12528C24.1173 8.95824 23.8811 8.95824 23.8268 9.12528L23.3328 10.6458C23.3085 10.7205 23.2389 10.771 23.1604 10.771H21.5616C21.386 10.771 21.313 10.9957 21.4551 11.0989L22.7486 12.0387C22.8121 12.0849 22.8386 12.1666 22.8144 12.2413L22.3203 13.7619C22.266 13.9288 22.4572 14.0678 22.5993 13.9646L23.8927 13.0248C23.9563 12.9786 24.0423 12.9786 24.1058 13.0248L25.3992 13.9646C25.5413 14.0678 25.7324 13.9288 25.6782 13.7619L25.1841 12.2413C25.1598 12.1666 25.1865 12.0849 25.25 12.0387L26.5434 11.0989C26.6855 10.9957 26.6124 10.771 26.4369 10.771H24.8381C24.7596 10.771 24.69 10.7205 24.6657 10.6458L24.1716 9.12528Z" fill="#333333"/>
</svg>
