<svg width="48" height="48" viewBox="0 0 48 48" fill="none" xmlns="http://www.w3.org/2000/svg">
<path fill-rule="evenodd" clip-rule="evenodd" d="M16.8786 28L22.8508 32.1931C23.5404 32.6773 24.4596 32.6773 25.1492 32.1931L31.1214 28C31.1214 28 42 31.3932 42 35.4669V42.0002H6V35.4669C6 31.3932 16.8786 28 16.8786 28ZM34 34H36V36H34V38H32V36H30V34H32V32H34V34Z" fill="#333333"/>
<path fill-rule="evenodd" clip-rule="evenodd" d="M21.7015 33.8299L16.559 30.2193C16.3582 30.2906 16.1299 30.3734 15.88 30.4669C14.9001 30.8337 13.6095 31.3579 12.3325 31.9953C11.0365 32.6422 9.84957 33.3592 9.01561 34.0878C8.11492 34.8746 8 35.3426 8 35.4669V40.0002H40V35.4669C40 35.3426 39.8851 34.8746 38.9844 34.0878C38.6953 33.8352 38.3638 33.584 38 33.3367V38H36V40H30V38H28V32.6353L26.2985 33.8299C24.9192 34.7983 23.0808 34.7983 21.7015 33.8299ZM16.8786 28C16.8786 28 6 31.3932 6 35.4669V42.0002H42V35.4669C42 31.3932 31.1214 28 31.1214 28L25.1492 32.1931C24.4596 32.6773 23.5404 32.6773 22.8508 32.1931L16.8786 28ZM30 31.231L28.9048 32H30V31.231ZM34 32H32V34H30V36H32V38H34V36H36V34H34V32Z" fill="#333333"/>
<path fill-rule="evenodd" clip-rule="evenodd" d="M24 6C21.1943 6 17.7625 7.02621 15.7359 7.73119C14.7482 8.0748 14.2528 9.14841 14.58 10.1417L17.3333 18.5C21.7778 16.7143 26.2222 16.7143 30.6666 18.5L33.42 10.1417C33.7472 9.14841 33.2518 8.0748 32.2641 7.73119C30.2375 7.02621 26.8056 6 24 6ZM25 11H27V13H25V15H23V13H21V11H23V9H25V11Z" fill="#333333"/>
<path fill-rule="evenodd" clip-rule="evenodd" d="M29.6201 18.425C25.8635 16.8821 22.1365 16.8821 18.3799 18.425C18.3193 18.4498 18.257 18.4685 18.1937 18.481C18.0673 18.9656 18 19.4746 18 20C18 23.3137 20.6863 26 24 26C27.3137 26 30 23.3137 30 20C30 19.4746 29.9327 18.9656 29.8063 18.481C29.743 18.4685 29.6807 18.4498 29.6201 18.425ZM29.4174 16.2097C25.8119 14.9538 22.1882 14.9538 18.5826 16.2097C18.4142 15.9783 18.151 15.8255 17.8557 15.8012C17.453 15.7681 17.0699 15.9805 16.8848 16.3397C16.319 17.4377 16 18.6831 16 20C16 24.4183 19.5817 28 24 28C28.4183 28 32 24.4183 32 20C32 18.6831 31.681 17.4377 31.1152 16.3397C30.9301 15.9805 30.547 15.7681 30.1443 15.8012C29.849 15.8255 29.5858 15.9783 29.4174 16.2097Z" fill="#333333"/>
</svg>
