<svg width="48" height="48" viewBox="0 0 48 48" fill="none" xmlns="http://www.w3.org/2000/svg">
<path fill-rule="evenodd" clip-rule="evenodd" d="M16.8786 28L23.3557 33.4571C23.728 33.7708 24.272 33.7708 24.6443 33.4571L31.1214 28C31.1214 28 42 31.3932 42 35.4669V42.0002H6V35.4669C6 31.3932 16.8786 28 16.8786 28ZM12 35H19V36.2457C19 36.6922 18.704 37.0846 18.2747 37.2072L15.7747 37.9215C15.5952 37.9728 15.4048 37.9728 15.2253 37.9215L12.7253 37.2072C12.296 37.0846 12 36.6922 12 36.2457V35ZM33.6645 33.1253C33.6127 32.9582 33.3873 32.9582 33.3355 33.1253L32.8639 34.6458C32.8407 34.7205 32.7743 34.771 32.6994 34.771H31.1733C31.0058 34.771 30.936 34.9957 31.0717 35.0989L32.3063 36.0387C32.3669 36.0849 32.3922 36.1666 32.3691 36.2413L31.8975 37.7619C31.8457 37.9288 32.0281 38.0678 32.1638 37.9646L33.3984 37.0248C33.459 36.9786 33.5411 36.9786 33.6017 37.0248L34.8362 37.9646C34.9719 38.0678 35.1543 37.9288 35.1025 37.7619L34.6309 36.2413C34.6078 36.1666 34.6332 36.0849 34.6938 36.0387L35.9283 35.0989C36.064 34.9957 35.9942 34.771 35.8267 34.771H34.3006C34.2257 34.771 34.1593 34.7205 34.1361 34.6458L33.6645 33.1253Z" fill="#333333"/>
<path fill-rule="evenodd" clip-rule="evenodd" d="M17.2038 16.507C17.5083 16.4227 17.8347 16.4871 18.0842 16.6809C18.8944 17.3099 20.5748 18 24 18C27.4252 18 29.1056 17.3099 29.9158 16.6809C30.1653 16.4871 30.4917 16.4227 30.7962 16.507C31.1006 16.5914 31.3473 16.8147 31.4615 17.1093C31.8096 18.0072 32 18.9825 32 20C32 24.4183 28.4183 28 24 28C19.5817 28 16 24.4183 16 20C16 18.9825 16.1904 18.0072 16.5385 17.1093C16.6527 16.8147 16.8994 16.5914 17.2038 16.507ZM18.0839 18.9934C18.0288 19.3204 18 19.6566 18 20C18 23.3137 20.6863 26 24 26C27.3137 26 30 23.3137 30 20C30 19.6566 29.9712 19.3204 29.9161 18.9934C28.5821 19.6057 26.6854 20 24 20C21.3146 20 19.4179 19.6057 18.0839 18.9934Z" fill="#333333"/>
<path fill-rule="evenodd" clip-rule="evenodd" d="M24 6C24 6 13.5 7.77419 13.5 10.0968C13.5 13.1935 15.4091 14.5 15.4091 14.5H32.5909C32.5909 14.5 34.5 13.1939 34.5 10.0968C34.5 7.77419 24 6 24 6ZM32.9877 16C32.9877 16 33.7138 20 24 20C14.2862 20 15.0123 16 15.0123 16H32.9877ZM24 8.5C24.5333 9.03333 26 9.56667 26 9.56667C26 9.56667 25.6 12.5 24 12.5C22.4 12.5 22 9.56667 22 9.56667C22 9.56667 23.4667 9.03333 24 8.5Z" fill="#333333"/>
</svg>
