<svg width="48" height="48" viewBox="0 0 48 48" fill="none" xmlns="http://www.w3.org/2000/svg">
<path fill-rule="evenodd" clip-rule="evenodd" d="M42 36.0405C42 31.6421 31.0755 28.8704 23.4706 29.0047C16.2579 29.132 6 31.6421 6 36.0405V42H42V36.0405ZM40 40V36.0405C40 35.8414 39.8803 35.3615 38.9574 34.6539C38.0609 33.9666 36.6896 33.2979 34.9553 32.7204C31.5013 31.5703 27.0956 30.941 23.5059 31.0044C20.0724 31.065 15.9173 31.6981 12.6816 32.812C11.0553 33.3719 9.78571 34.0114 8.96163 34.6678C8.12957 35.3306 8 35.7968 8 36.0405V40H40Z" fill="#333333"/>
<path d="M40 34H8L7 38H41L40 34Z" fill="#333333"/>
<path fill-rule="evenodd" clip-rule="evenodd" d="M16 7C16.5523 7 17 7.44772 17 8V18H15V8C15 7.44772 15.4477 7 16 7ZM32 7C32.5523 7 33 7.44772 33 8V18H31V8C31 7.44772 31.4477 7 32 7Z" fill="#333333"/>
<path fill-rule="evenodd" clip-rule="evenodd" d="M19.586 12.1009C18.3541 12.3025 17.0991 12.5079 16 12.5079V10.5079C16.9284 10.5079 18.0252 10.329 19.316 10.1184C19.4008 10.1045 19.4865 10.0905 19.5731 10.0765C20.9354 9.85487 22.4639 9.61905 24 9.61905C25.5897 9.61905 27.1512 9.85411 28.5216 10.0764C28.6494 10.0971 28.775 10.1176 28.8984 10.1378C30.1417 10.3407 31.166 10.5079 32 10.5079V12.5079C30.9923 12.5079 29.7978 12.3121 28.6039 12.1163C28.4697 12.0943 28.3354 12.0723 28.2014 12.0506C26.8318 11.8284 25.4122 11.619 24 11.619C22.6454 11.619 21.2641 11.8277 19.8942 12.0505C19.7917 12.0672 19.6889 12.084 19.586 12.1009Z" fill="#333333"/>
<path fill-rule="evenodd" clip-rule="evenodd" d="M19.586 15.4818C18.3541 15.6835 17.0991 15.8889 16 15.8889V13.8889C16.9284 13.8889 18.0252 13.7099 19.316 13.4993C19.4008 13.4855 19.4865 13.4715 19.5731 13.4574C20.9354 13.2358 22.4639 13 24 13C25.5897 13 27.1512 13.2351 28.5216 13.4573C28.6494 13.4781 28.775 13.4986 28.8984 13.5187C30.1417 13.7217 31.166 13.8889 32 13.8889V15.8889C30.9923 15.8889 29.7978 15.693 28.6039 15.4973C28.4697 15.4753 28.3354 15.4533 28.2014 15.4315C26.8318 15.2094 25.4122 15 24 15C22.6454 15 21.2641 15.2086 19.8942 15.4315C19.7917 15.4481 19.6889 15.465 19.586 15.4818Z" fill="#333333"/>
<path fill-rule="evenodd" clip-rule="evenodd" d="M19.6033 8.5407C18.3744 8.76705 17.1097 9 16 9L16 7C16.9179 7 18.0055 6.80041 19.3012 6.56262C19.3845 6.54733 19.4686 6.53189 19.5536 6.51634C20.9151 6.26718 22.4527 6 24 6C25.6007 6 27.1709 6.26622 28.541 6.51624C28.668 6.53941 28.7926 6.56229 28.915 6.58477C30.1624 6.81378 31.1767 7 32 7L32 9C30.9816 9 29.7766 8.77768 28.5853 8.55789C28.4506 8.53304 28.3161 8.50822 28.182 8.48376C26.8121 8.23378 25.4011 8 24 8C22.6567 8 21.2844 8.23282 19.9136 8.48366C19.8105 8.50253 19.7071 8.52159 19.6033 8.5407Z" fill="#333333"/>
<path d="M24 7C21.1093 7 18.1803 8 16 8V11H32L32 8C29.9623 8 27.0018 7 24 7Z" fill="#333333"/>
<path fill-rule="evenodd" clip-rule="evenodd" d="M15 18C15 22.9706 19.0294 27 24 27C28.9706 27 33 22.9706 33 18H31C31 21.866 27.866 25 24 25C20.134 25 17 21.866 17 18H15Z" fill="#333333"/>
</svg>
