<svg width="48" height="48" viewBox="0 0 48 48" fill="none" xmlns="http://www.w3.org/2000/svg">
<path fill-rule="evenodd" clip-rule="evenodd" d="M17.1176 30C17.0992 30.0043 17.3016 30.0073 17.6729 30.0094L24 39.5L30.3172 30.0243C30.6067 30.0256 30.8761 30.0272 31.1214 30.029C36.5255 31.2619 42 33.7758 42 37.5576V42.0001H6V37.5576C6 33.7758 11.7135 31.2329 17.1176 30ZM33 34C33.6667 34.6667 35 35.3333 35 35.3333C35 35.3333 34.3017 38 33 38C31.6983 38 31 35.3333 31 35.3333C31 35.3333 32.3333 34.6667 33 34Z" fill="#333333"/>
<path d="M25.5 30H22.5C21.9477 30 21.5 30.4477 21.5 31V32.382C21.5 32.7607 21.714 33.107 22.0528 33.2764L22.5 33.5L21.9444 36.5V41H26.1447V36.7234L25.5 33.5L25.9472 33.2764C26.286 33.107 26.5 32.7607 26.5 32.382V31C26.5 30.4477 26.0523 30 25.5 30Z" fill="#333333"/>
<path fill-rule="evenodd" clip-rule="evenodd" d="M17.2038 16.507C17.5083 16.4227 17.8347 16.4871 18.0842 16.6809C18.8944 17.3099 20.5748 18 24 18C27.4252 18 29.1056 17.3099 29.9158 16.6809C30.1653 16.4871 30.4917 16.4227 30.7962 16.507C31.1006 16.5914 31.3473 16.8147 31.4615 17.1093C31.8096 18.0072 32 18.9825 32 20C32 24.4183 28.4183 28 24 28C19.5817 28 16 24.4183 16 20C16 18.9825 16.1904 18.0072 16.5385 17.1093C16.6527 16.8147 16.8994 16.5914 17.2038 16.507ZM18.0839 18.9935C18.0288 19.3204 18 19.6566 18 20C18 23.3137 20.6863 26 24 26C27.3137 26 30 23.3137 30 20C30 19.6566 29.9712 19.3204 29.9161 18.9935C28.5821 19.6057 26.6854 20 24 20C21.3146 20 19.4179 19.6057 18.0839 18.9935Z" fill="#333333"/>
<path fill-rule="evenodd" clip-rule="evenodd" d="M24 6C24 6 13.5 7.77419 13.5 10.0968C13.5 13.1935 15.4091 14.5 15.4091 14.5H32.5909C32.5909 14.5 34.5 13.1939 34.5 10.0968C34.5 7.77419 24 6 24 6ZM32.9877 16C32.9877 16 33.7138 20 24 20C14.2862 20 15.0123 16 15.0123 16H32.9877ZM24 12C24.8284 12 25.5 11.3284 25.5 10.5C25.5 9.67157 24.8284 9 24 9C23.1716 9 22.5 9.67157 22.5 10.5C22.5 11.3284 23.1716 12 24 12Z" fill="#333333"/>
</svg>
