<svg width="48" height="48" viewBox="0 0 48 48" fill="none" xmlns="http://www.w3.org/2000/svg">
<path fill-rule="evenodd" clip-rule="evenodd" d="M30.6144 17.4675C31.1506 17.3511 31.6804 17.6884 31.8018 18.2235C31.9316 18.7958 32 19.3905 32 20C32 24.4183 28.4182 28 24 28C19.5817 28 16 24.4183 16 20C16 19.4255 16.0607 18.8641 16.1764 18.3222C16.2903 17.7888 16.8106 17.4451 17.346 17.5496C18.7473 17.8232 20.7976 18 23.7274 18C26.9375 18 29.1391 17.7877 30.6144 17.4675ZM29.9879 19.6157C28.4172 19.8602 26.3703 20 23.7274 20C21.3459 20 19.4705 19.8865 18.0081 19.6847C18.0027 19.7891 18 19.8942 18 20C18 23.3137 20.6863 26 24 26C27.3137 26 30 23.3137 30 20C30 19.8708 29.9959 19.7427 29.9879 19.6157Z" fill="#333333"/>
<path fill-rule="evenodd" clip-rule="evenodd" d="M23 36.5V32H25V36.5H23Z" fill="#333333"/>
<path fill-rule="evenodd" clip-rule="evenodd" d="M32.6933 38.6706L26.2588 40.3948L25.7411 38.4629L32.1757 36.7388L32.6933 38.6706Z" fill="#333333"/>
<path fill-rule="evenodd" clip-rule="evenodd" d="M21.7411 40.3948L15.3066 38.6706L15.8243 36.7388L22.2588 38.4629L21.7411 40.3948Z" fill="#333333"/>
<path d="M32.5776 36.4856C32.2917 35.4186 32.9249 34.322 33.9918 34.0361L35.9237 33.5184C36.9906 33.2326 38.0873 33.8657 38.3732 34.9326L39.1496 37.8304C39.4355 38.8974 38.8023 39.994 37.7354 40.2799L35.8035 40.7976C34.7366 41.0834 33.6399 40.4503 33.3541 39.3833L32.5776 36.4856Z" fill="#333333"/>
<path fill-rule="evenodd" clip-rule="evenodd" d="M32.0946 36.615C31.7373 35.2813 32.5287 33.9105 33.8624 33.5531L35.7943 33.0355C37.1279 32.6781 38.4988 33.4696 38.8561 34.8032L39.6326 37.701C39.9899 39.0347 39.1985 40.4055 37.8648 40.7629L35.933 41.2805C34.5993 41.6379 33.2284 40.8464 32.8711 39.5127L32.0946 36.615ZM34.1212 34.519C33.321 34.7334 32.8461 35.556 33.0606 36.3562L33.837 39.2539C34.0514 40.0541 34.8739 40.529 35.6741 40.3146L37.606 39.797C38.4062 39.5825 38.8811 38.76 38.6666 37.9598L37.8902 35.0621C37.6758 34.2619 36.8533 33.787 36.0531 34.0014L34.1212 34.519Z" fill="#333333"/>
<path d="M9.62233 34.9319C9.90821 33.8649 11.0049 33.2318 12.0718 33.5176L14.0037 34.0353C15.0706 34.3212 15.7038 35.4178 15.4179 36.4848L14.6414 39.3825C14.3555 40.4495 13.2589 41.0826 12.1919 40.7968L10.2601 40.2791C9.19315 39.9932 8.55999 38.8966 8.84587 37.8296L9.62233 34.9319Z" fill="#333333"/>
<path fill-rule="evenodd" clip-rule="evenodd" d="M9.13936 34.8024C9.49672 33.4688 10.8676 32.6773 12.2012 33.0347L14.1331 33.5523C15.4667 33.9097 16.2582 35.2805 15.9008 36.6142L15.1244 39.512C14.767 40.8456 13.3962 41.6371 12.0625 41.2797L10.1307 40.7621C8.79701 40.4047 8.00555 39.0339 8.36291 37.7002L9.13936 34.8024ZM11.9424 34.0006C11.1422 33.7862 10.3197 34.2611 10.1053 35.0613L9.32883 37.959C9.11442 38.7592 9.58929 39.5817 10.3895 39.7962L12.3213 40.3138C13.1215 40.5282 13.944 40.0533 14.1585 39.2531L14.9349 36.3554C15.1493 35.5552 14.6745 34.7327 13.8743 34.5182L11.9424 34.0006Z" fill="#333333"/>
<path fill-rule="evenodd" clip-rule="evenodd" d="M24 40C24.5522 40 25 39.5523 25 39C25 38.4477 24.5522 38 24 38C23.4477 38 23 38.4477 23 39C23 39.5523 23.4477 40 24 40ZM24 42C25.6568 42 27 40.6569 27 39C27 37.3431 25.6568 36 24 36C22.3431 36 21 37.3431 21 39C21 40.6569 22.3431 42 24 42Z" fill="#333333"/>
<path fill-rule="evenodd" clip-rule="evenodd" d="M24 32C19.5817 32 16 35.5817 16 40V41C16 41.5523 15.5522 42 15 42C14.4477 42 14 41.5523 14 41V40C14 34.4772 18.4771 30 24 30C29.5228 30 34 34.4772 34 40V41C34 41.5523 33.5522 42 33 42C32.4477 42 32 41.5523 32 41V40C32 35.5817 28.4182 32 24 32Z" fill="#333333"/>
<path fill-rule="evenodd" clip-rule="evenodd" d="M15 9.5C15 9.0625 19.5159 6 24 6C28.484 6 33 9.0625 33 9.5C33 11.06 32.8343 11.9838 32.6937 12.4869C32.6014 12.817 32.2922 13 31.9494 13H16.0506C15.7078 13 15.3985 12.8169 15.3063 12.4868C15.1656 11.9836 15 11.0598 15 9.5ZM22.5 9C21.9477 9 21.5 9.44772 21.5 10C21.5 10.5523 21.9477 11 22.5 11H25.5C26.0522 11 26.5 10.5523 26.5 10C26.5 9.44772 26.0522 9 25.5 9H22.5Z" fill="#333333"/>
<path fill-rule="evenodd" clip-rule="evenodd" d="M14.8187 15C12.9582 16.9747 12.0204 19.9999 23.7411 19.9999C35.4618 19.9999 35.0059 16.9747 33.4599 15H14.8187Z" fill="#333333"/>
</svg>
