<svg width="48" height="48" viewBox="0 0 48 48" fill="none" xmlns="http://www.w3.org/2000/svg">
<path d="M42 39.5C42 40.8807 38.6421 42 34.5 42C30.3579 42 27 40.8807 27 39.5C27 38.1193 30.3579 37 34.5 37C38.6421 37 42 38.1193 42 39.5Z" fill="#333333"/>
<path d="M31.1171 19.0534C31.1171 19.6352 30.6432 20.1068 30.0586 20.1068C29.4739 20.1068 29 19.6352 29 19.0534C29 18.4716 29.4739 18 30.0586 18C30.6432 18 31.1171 18.4716 31.1171 19.0534Z" fill="#333333"/>
<path d="M33.1757 25.5801C33.1757 26.4528 32.4648 27.1602 31.5879 27.1602C30.7109 27.1602 30 26.4528 30 25.5801C30 24.7074 30.7109 24 31.5879 24C32.4648 24 33.1757 24.7074 33.1757 25.5801Z" fill="#333333"/>
<path d="M37.1171 29.0534C37.1171 29.6352 36.6432 30.1068 36.0586 30.1068C35.4739 30.1068 35 29.6352 35 29.0534C35 28.4716 35.4739 28 36.0586 28C36.6432 28 37.1171 28.4716 37.1171 29.0534Z" fill="#333333"/>
<path d="M32.1171 32.0534C32.1171 32.6352 31.6432 33.1068 31.0586 33.1068C30.4739 33.1068 30 32.6352 30 32.0534C30 31.4716 30.4739 31 31.0586 31C31.6432 31 32.1171 31.4716 32.1171 32.0534Z" fill="#333333"/>
<path d="M38.1757 36.5801C38.1757 37.4528 37.4648 38.1602 36.5879 38.1602C35.7109 38.1602 35 37.4528 35 36.5801C35 35.7074 35.7109 35 36.5879 35C37.4648 35 38.1757 35.7074 38.1757 36.5801Z" fill="#333333"/>
<path d="M18.1526 40.5594C17.5925 42.8606 14.0029 42.2303 14.1483 39.9028C14.2938 37.5754 15.1311 31.1711 15.1311 31.1711L9.82526 27.8018C9.82526 27.8018 4.94854 24.8753 6.20774 20.8443C6.8413 18.8161 12.2798 11.9497 15.8563 10.7908C19.4328 9.63187 19.9072 9.70236 21.681 11.2976C23.4547 12.8929 21.8671 21.6446 21.8671 21.6446C21.8671 21.6446 25.1996 25.6124 26.343 27.3025C27.4863 28.9926 24.9079 30.3916 23.9434 29.6145C22.9789 28.8374 17.9361 24.258 17.5176 23.2923C17.0992 22.3267 17.3936 19.3915 17.3936 19.3915L14.3164 22.8873C14.3164 22.8873 19.2701 27.3382 20.2251 28.0458C21.1801 28.7534 20.8997 29.5759 20.8997 29.5759C20.8997 29.5759 18.7127 38.2583 18.1526 40.5594Z" fill="#333333"/>
<path d="M29.4065 9.70643C29.4065 11.7534 27.7619 13.4129 25.7332 13.4129C23.7044 13.4129 22.0598 11.7534 22.0598 9.70643C22.0598 7.65942 23.7044 6 25.7332 6C27.7619 6 29.4065 7.65942 29.4065 9.70643Z" fill="#333333"/>
</svg>
