<svg width="48" height="48" viewBox="0 0 48 48" fill="none" xmlns="http://www.w3.org/2000/svg">
<path fill-rule="evenodd" clip-rule="evenodd" d="M39.0002 8.00007L9.00024 8.00007C8.44796 8.00007 8.00024 8.44779 8.00024 9.00007L8.00024 39.0001C8.00024 39.5524 8.44796 40.0001 9.00024 40.0001L39.0002 40.0001C39.5525 40.0001 40.0002 39.5524 40.0002 39.0001L40.0002 9.00007C40.0002 8.44779 39.5525 8.00007 39.0002 8.00007ZM9.00024 6.00007C7.34339 6.00007 6.00024 7.34322 6.00024 9.00007L6.00024 39.0001C6.00024 40.6569 7.34339 42.0001 9.00024 42.0001L39.0002 42.0001C40.6571 42.0001 42.0002 40.6569 42.0002 39.0001L42.0002 9.00007C42.0002 7.34322 40.6571 6.00007 39.0002 6.00007L9.00024 6.00007Z" fill="#333333"/>
<path d="M17.706 14.2403C21.8294 14.237 21.4591 19.8448 21.4609 22.0878C21.4633 24.9506 22.1757 30.7274 19.9704 32.9303C17.7231 35.1752 13.2258 36.3004 10.9752 34.433C8.72449 32.5657 12.458 14.2446 17.706 14.2403Z" fill="#333333"/>
<path d="M30.2366 14.2315C26.1131 14.2349 26.4927 19.8421 26.4945 22.0851C26.4968 24.9479 25.7939 30.7258 28.0028 32.9251C30.2537 35.1663 34.7529 36.2841 37.0005 34.4131C39.2481 32.5421 35.4845 14.2272 30.2366 14.2315Z" fill="#333333"/>
<path fill-rule="evenodd" clip-rule="evenodd" d="M22.9679 6.0005C22.9679 6.0005 22.9679 6.00037 23.9679 6.00001C24.9679 5.99965 24.9679 5.99978 24.9679 5.99978L24.9713 11.9341C24.9732 15.0381 24.9752 18.4153 24.9762 19.509C24.9775 20.9114 24.405 21.796 23.6859 22.2861C23.3533 22.5128 23.0251 22.6306 22.782 22.6926C22.6591 22.7239 22.5534 22.7421 22.4731 22.7528C22.4328 22.7582 22.3984 22.7617 22.371 22.764C22.3572 22.7652 22.3451 22.7661 22.3348 22.7667L22.3207 22.7675L22.3147 22.7678L22.3106 22.768C22.3106 22.768 22.3094 22.768 22.2675 21.7689C22.2256 20.7698 22.2244 20.7698 22.2244 20.7698L22.2232 20.7699L22.2209 20.77L22.2167 20.7702L22.21 20.7706L22.2024 20.7711C22.2024 20.7711 22.2041 20.7709 22.2089 20.7703C22.2222 20.7685 22.2501 20.7641 22.2876 20.7546C22.3651 20.7348 22.4645 20.698 22.5593 20.6334C22.6952 20.5408 22.977 20.2959 22.9763 19.5105C22.9752 18.4163 22.9732 15.0387 22.9713 11.9348L22.9679 6.0005Z" fill="#333333"/>
<path fill-rule="evenodd" clip-rule="evenodd" d="M25.0149 6.0005C25.0149 6.0005 25.0149 6.00037 24.0149 6.00001C23.0149 5.99965 23.0149 5.99978 23.0149 5.99978L23.0115 11.9341C23.0097 15.0381 23.0076 18.4153 23.0066 19.509C23.0053 20.9114 23.5779 21.796 24.2969 22.2861C24.6296 22.5128 24.9577 22.6306 25.2009 22.6926C25.3238 22.7239 25.4295 22.7421 25.5097 22.7528C25.55 22.7582 25.5844 22.7617 25.6119 22.764C25.6256 22.7652 25.6377 22.7661 25.648 22.7667L25.6621 22.7675L25.6681 22.7678L25.6722 22.768C25.6722 22.768 25.6735 22.768 25.7154 21.7689C25.7572 20.7698 25.7585 20.7698 25.7585 20.7698L25.7597 20.7699L25.762 20.77L25.7661 20.7702L25.7729 20.7706L25.7804 20.7711C25.7804 20.7711 25.7788 20.7709 25.774 20.7703C25.7607 20.7685 25.7327 20.7641 25.6953 20.7546C25.6177 20.7348 25.5183 20.698 25.4235 20.6334C25.2877 20.5408 25.0059 20.2959 25.0066 19.5105C25.0076 18.4163 25.0097 15.0387 25.0115 11.9348L25.0149 6.0005Z" fill="#333333"/>
</svg>
