<svg width="48" height="48" viewBox="0 0 48 48" fill="none" xmlns="http://www.w3.org/2000/svg">
<path fill-rule="evenodd" clip-rule="evenodd" d="M0 0H48V48H0V0ZM10.5 22.7501C10.5 23.7942 11.4672 24.7386 13.0279 25.4185C13.0094 25.61 13 25.804 13 25.9999C13 29.3136 15.6863 31.9999 19 31.9999C22.3137 31.9999 25 29.3136 25 25.9999C25 25.8039 24.9906 25.61 24.9721 25.4185C26.5328 24.7386 27.5 23.7942 27.5 22.7501C27.5 22.0679 27.0872 21.4283 26.3657 20.8772C26.3641 20.9376 26.3616 20.9972 26.3583 21.056C26.3274 21.6074 25.8554 22.0293 25.3039 21.9984C24.7525 21.9675 24.3306 21.4955 24.3615 20.944C24.3847 20.5299 24.3477 20.0393 24.2403 19.5205C23.6875 17.8127 22.257 16.0884 20 15.6224V17.0001C20 17.5523 19.5523 18.0001 19 18.0001C18.4477 18.0001 18 17.5523 18 17.0001V15.5549C15.6836 15.8917 14.3067 17.7221 13.7659 19.4693C13.649 20.0082 13.6073 20.5187 13.6298 20.9476C13.6587 21.4991 13.2351 21.9697 12.6836 21.9986C12.132 22.0276 11.6615 21.6039 11.6325 21.0524C11.6296 20.9969 11.6274 20.9406 11.626 20.8836C10.9097 21.4332 10.5 22.0705 10.5 22.7501ZM19 29.9999C16.8109 29.9999 15.0325 28.2413 15.0004 26.0598C16.1925 26.3408 17.5541 26.5001 19 26.5001C20.4459 26.5001 21.8075 26.3408 22.9996 26.0598C22.9676 28.2413 21.1891 29.9999 19 29.9999ZM6 38.143C6 35.5859 11.5583 33.8253 16 33.2261V36H22V33.2261C26.4417 33.8253 32 35.5859 32 38.143V42.0001H28V38H26V42.0001H12V38H10V42.0001H6V38.143ZM29.5 6.5V19.5H41.5V13V9.28571L37.5 13V9.28571L33.5 13V6.5H29.5Z" fill="#333333"/>
</svg>
