<svg width="48" height="48" viewBox="0 0 48 48" fill="none" xmlns="http://www.w3.org/2000/svg">
<path fill-rule="evenodd" clip-rule="evenodd" d="M48 0H0V48H48V0ZM24 11.0417C24 7.70495 21.2951 5 17.9583 5H12.0417C8.70495 5 6 7.70495 6 11.0417C6 14.3784 8.70495 17.0833 12.0417 17.0833H13.2V20C13.2 20 24 18.5417 24 11.0417ZM32.0417 6C28.7049 6 26 8.70495 26 12.0417C26 19.5417 35.6 21 35.6 21V18.0833H35.9583C39.2951 18.0833 42 15.3784 42 12.0417C42 8.70495 39.2951 6 35.9583 6H32.0417ZM13 33C15.7625 33 18 30.7625 18 28C18 25.2375 15.7625 23 13 23C10.2375 23 8 25.2375 8 28C8 30.7625 10.2375 33 13 33ZM13 35C9.6625 35 3 36.7867 3 40.3333V43H23V40.3333C23 36.7867 16.3375 35 13 35ZM40 28C40 30.7625 37.7625 33 35 33C32.2375 33 30 30.7625 30 28C30 25.2375 32.2375 23 35 23C37.7625 23 40 25.2375 40 28ZM24 31C26.21 31 28 29.21 28 27C28 24.79 26.21 23 24 23C21.79 23 20 24.79 20 27C20 29.21 21.79 31 24 31ZM25 40.3333C25 36.7867 31.6625 35 35 35C38.3375 35 45 36.7867 45 40.3333V43H25V40.3333ZM27.9625 34.4975C28.2206 34.3873 28.4839 34.2831 28.7508 34.185C27.2282 33.3961 25.2701 33 24 33C22.7298 33 20.7717 33.3961 19.2491 34.185C19.5161 34.2831 19.7794 34.3873 20.0374 34.4975C21.2085 34.998 22.3912 35.6741 23.3099 36.5785C23.556 36.8208 23.7895 37.0864 24 37.375C24.2105 37.0864 24.444 36.8208 24.69 36.5785C25.6088 35.6741 26.7914 34.998 27.9625 34.4975Z" fill="#333333"/>
</svg>
