<svg width="48" height="48" viewBox="0 0 48 48" fill="none" xmlns="http://www.w3.org/2000/svg">
<path fill-rule="evenodd" clip-rule="evenodd" d="M18 13.5L18 8.5C18 7.94772 18.4477 7.5 19 7.5C19.5523 7.5 20 7.94772 20 8.5V13.5C20 14.0523 19.5523 14.5 19 14.5C18.4477 14.5 18 14.0523 18 13.5Z" fill="#333333"/>
<path fill-rule="evenodd" clip-rule="evenodd" d="M23 11.5V8C23 7.44772 23.4477 7 24 7C24.5523 7 25 7.44772 25 8V11.5C25 12.0523 24.5523 12.5 24 12.5C23.4477 12.5 23 12.0523 23 11.5Z" fill="#333333"/>
<path fill-rule="evenodd" clip-rule="evenodd" d="M28 13.5V9C28 8.44772 28.4477 8 29 8C29.5523 8 30 8.44772 30 9V13.5C30 14.0523 29.5523 14.5 29 14.5C28.4477 14.5 28 14.0523 28 13.5Z" fill="#333333"/>
<path fill-rule="evenodd" clip-rule="evenodd" d="M16.7054 17.4129C16.9345 17.2773 17.2082 17.2388 17.4659 17.3057C19.2216 17.7617 21.5912 18 24 18C26.4088 18 28.7784 17.7617 30.5341 17.3057C30.7918 17.2388 31.0655 17.2773 31.2946 17.4129C31.5237 17.5484 31.6893 17.7697 31.7548 18.0277C31.9151 18.6596 32 19.3206 32 20C32 24.4183 28.4183 28 24 28C19.5817 28 16 24.4183 16 20C16 19.3206 16.0849 18.6596 16.2452 18.0277C16.3107 17.7697 16.4763 17.5484 16.7054 17.4129ZM18.0221 19.4809C18.0075 19.6518 18 19.825 18 20C18 23.3137 20.6863 26 24 26C27.3137 26 30 23.3137 30 20C30 19.825 29.9925 19.6519 29.9779 19.4809C28.1927 19.8309 26.0829 20 24 20C21.9171 20 19.8072 19.8309 18.0221 19.4809Z" fill="#333333"/>
<path fill-rule="evenodd" clip-rule="evenodd" d="M16.9504 12.9542C16.781 13.6975 16.8148 14.298 16.9447 14.6719C17.1258 15.1936 16.8498 15.7635 16.3281 15.9447C15.8064 16.1258 15.2365 15.8498 15.0553 15.3281C14.7662 14.4955 14.7764 13.4926 15.0005 12.5097C15.2279 11.5122 15.6911 10.4616 16.3967 9.50251C17.8226 7.56423 20.2409 6 23.6697 6C27.1506 6 29.7495 7.42761 31.3446 9.30289C32.8969 11.1279 33.5686 13.4875 32.9471 15.321C32.7698 15.8441 32.202 16.1244 31.679 15.9471C31.1559 15.7698 30.8756 15.202 31.0529 14.679C31.3798 13.7146 31.0762 12.0742 29.8211 10.5987C28.6088 9.17345 26.5684 8 23.6697 8C20.9162 8 19.0806 9.22922 18.0077 10.6877C17.4639 11.4269 17.1165 12.2255 16.9504 12.9542Z" fill="#333333"/>
<path fill-rule="evenodd" clip-rule="evenodd" d="M15.0514 13H16V14.7832L16.0057 14.7906C16.0038 14.7921 16.0019 14.7935 16 14.795V15H15.7482C14.9813 15.6574 14.9965 15.9927 15.0022 16.0282C15.0151 16.1083 15.1684 16.4378 16.0671 16.8356C17.7536 17.5821 20.8094 18 24 18C27.1906 18 30.2464 17.5821 31.9329 16.8356C32.8316 16.4378 32.9849 16.1083 32.9978 16.0282C33.0035 15.9927 33.0187 15.6574 32.2518 15H32V14.795C31.9981 14.7935 31.9962 14.7921 31.9943 14.7906L32 14.7832V13H32.9486L33.219 13.2094C34.3431 14.0801 35.1677 15.1359 34.9723 16.3468C34.7835 17.5167 33.7264 18.2289 32.7424 18.6644C30.6636 19.5846 27.2644 20 24 20C20.7356 20 17.3365 19.5846 15.2576 18.6644C14.2736 18.2289 13.2165 17.5167 13.0277 16.3468C12.8323 15.1359 13.6569 14.0801 14.781 13.2094L15.0514 13Z" fill="#333333"/>
<path fill-rule="evenodd" clip-rule="evenodd" d="M31 35H17V30.9466C14.8857 31.4567 12.817 32.1537 11.1616 32.9956C10.0253 33.5735 9.18243 34.1704 8.64787 34.7401C8.1232 35.2993 8 35.7126 8 36.0001V40.0001H40V36.0001C40 35.7126 39.8768 35.2993 39.3521 34.7401C38.8176 34.1704 37.9747 33.5735 36.8384 32.9956C35.183 32.1537 33.1143 31.4567 31 30.9466V35ZM31 28.8923C30.3281 28.7389 29.6578 28.6045 29 28.4896V33H19V28.4896C18.3422 28.6045 17.672 28.7389 17 28.8923C11.5567 30.1349 6 32.6202 6 36.0001V42.0001H42V36.0001C42 32.6202 36.4433 30.1349 31 28.8923Z" fill="#333333"/>
<path fill-rule="evenodd" clip-rule="evenodd" d="M13 40V31H15V40H13Z" fill="#333333"/>
<path fill-rule="evenodd" clip-rule="evenodd" d="M34 40V31H36V40H34Z" fill="#333333"/>
</svg>
