<svg width="48" height="48" viewBox="0 0 48 48" fill="none" xmlns="http://www.w3.org/2000/svg">
<path fill-rule="evenodd" clip-rule="evenodd" d="M13.5157 24.4713C13.7674 24.3138 14.0761 24.2764 14.3582 24.3691C15.609 24.7802 17.2833 25 19 25C20.7167 25 22.391 24.7802 23.6418 24.3691C23.9239 24.2764 24.2326 24.3138 24.4843 24.4713C24.7361 24.6288 24.9048 24.89 24.9449 25.1842C24.9813 25.4514 25 25.7238 25 26C25 29.3137 22.3137 32 19 32C15.6863 32 13 29.3137 13 26C13 25.7238 13.0187 25.4514 13.0551 25.1842C13.0952 24.89 13.2639 24.6288 13.5157 24.4713ZM15.0474 26.6174C15.3442 28.5334 17.0008 30 19 30C20.9992 30 22.6558 28.5334 22.9526 26.6174C21.7229 26.8761 20.3503 27 19 27C17.6497 27 16.277 26.8761 15.0474 26.6174Z" fill="#333333"/>
<path fill-rule="evenodd" clip-rule="evenodd" d="M15.2317 19.2123C14.5129 20.2103 14.4119 21.2491 14.5578 21.6781C14.7356 22.2009 14.4559 22.769 13.933 22.9468C13.4101 23.1246 12.8421 22.8448 12.6643 22.3219C12.246 21.0919 12.6457 19.3807 13.6089 18.0434C14.6227 16.6359 16.3465 15.5 18.7739 15.5C21.2201 15.5 23.0624 16.5276 24.1959 17.8887C25.2877 19.1996 25.7909 20.9281 25.3306 22.315C25.1566 22.8392 24.5907 23.1231 24.0665 22.9491C23.5423 22.7751 23.2584 22.2092 23.4324 21.685C23.6105 21.1484 23.4572 20.1269 22.6591 19.1686C21.9029 18.2606 20.6222 17.5 18.7739 17.5C17.0397 17.5 15.9 18.2846 15.2317 19.2123Z" fill="#333333"/>
<path fill-rule="evenodd" clip-rule="evenodd" d="M13.7283 19.7993C13.5903 19.8477 13.4559 19.898 13.3253 19.9502C12.577 20.2496 11.9043 20.631 11.4023 21.1058C10.8982 21.5825 10.5 22.2223 10.5 23C10.5 23.7778 10.8982 24.4176 11.4023 24.8943C11.9043 25.3691 12.577 25.7505 13.3253 26.0498C14.8275 26.6507 16.8343 27 19 27C21.1657 27 23.1725 26.6507 24.6747 26.0498C25.423 25.7505 26.0957 25.3691 26.5977 24.8943C27.1018 24.4176 27.5 23.7778 27.5 23C27.5 22.2223 27.1018 21.5825 26.5977 21.1058C26.0957 20.631 25.423 20.2496 24.6747 19.9502C24.541 19.8968 24.4034 19.8453 24.262 19.7959C24.5313 20.5965 24.5734 21.3842 24.3815 22H24.3685C24.75 22.1866 25.033 22.3787 25.2235 22.5589C25.4785 22.8 25.5 22.9494 25.5 23C25.5 23.0507 25.4785 23.2001 25.2235 23.4412C24.9664 23.6843 24.5408 23.9493 23.9319 24.1929C22.7197 24.6778 20.9764 25 19 25C17.0236 25 15.2803 24.6778 14.0681 24.1929C13.4592 23.9493 13.0336 23.6843 12.7765 23.4412C12.5215 23.2001 12.5 23.0507 12.5 23C12.5 22.9494 12.5215 22.8 12.7765 22.5589C12.967 22.3787 13.25 22.1866 13.6315 22H13.611C13.4329 21.442 13.4671 20.6381 13.7283 19.7993Z" fill="#333333"/>
<path fill-rule="evenodd" clip-rule="evenodd" d="M19 19.5C18.4477 19.5 18 19.0523 18 18.5V16.5C18 15.9477 18.4477 15.5 19 15.5C19.5523 15.5 20 15.9477 20 16.5V18.5C20 19.0523 19.5523 19.5 19 19.5Z" fill="#333333"/>
<path fill-rule="evenodd" clip-rule="evenodd" d="M14 33.5624C14.6766 33.4262 15.3503 33.3137 16 33.226V36H22V33.226C22.6497 33.3137 23.3234 33.4262 24 33.5624C27.9489 34.3574 32 35.9599 32 38.1429V42H6V38.1429C6 35.9599 10.0511 34.3574 14 33.5624ZM14 35.6053C12.6057 35.9061 11.2421 36.3079 10.1231 36.7881C9.25216 37.162 8.64101 37.5365 8.27937 37.8635C8.08952 38.0352 8.02152 38.1426 8 38.1862V40H30V38.1862C29.9785 38.1426 29.9105 38.0352 29.7206 37.8635C29.359 37.5365 28.7478 37.162 27.8769 36.7881C26.7579 36.3079 25.3943 35.9061 24 35.6053V38H14V35.6053ZM30.0088 38.2084C30.0084 38.2084 30.0069 38.2048 30.0053 38.1976C30.0083 38.2048 30.0091 38.2084 30.0088 38.2084ZM7.99122 38.2084C7.99088 38.2084 7.99172 38.2048 7.99474 38.1976C7.99306 38.2048 7.99155 38.2084 7.99122 38.2084Z" fill="#333333"/>
<path fill-rule="evenodd" clip-rule="evenodd" d="M10 41L10 35H12L12 41H10Z" fill="#333333"/>
<path fill-rule="evenodd" clip-rule="evenodd" d="M26 41V36H28V41H26Z" fill="#333333"/>
<path fill-rule="evenodd" clip-rule="evenodd" d="M28 7C28 6.44772 28.4477 6 29 6H33C33.5523 6 34 6.44772 34 7V11.2068L36.3195 9.05292C36.611 8.78228 37.0351 8.71009 37.3997 8.86908C37.7643 9.02806 38 9.38798 38 9.78571V11.2068L40.3195 9.05292C40.611 8.78228 41.0351 8.71009 41.3997 8.86908C41.7643 9.02806 42 9.38798 42 9.78571V20C42 20.5523 41.5523 21 41 21H29C28.4477 21 28 20.5523 28 20V7ZM30 8V19H40V12.0789L37.6805 14.2328C37.389 14.5034 36.9649 14.5756 36.6003 14.4166C36.2357 14.2577 36 13.8977 36 13.5V12.0789L33.6805 14.2328C33.389 14.5034 32.9649 14.5756 32.6003 14.4166C32.2357 14.2577 32 13.8977 32 13.5V8H30Z" fill="#333333"/>
</svg>
