<svg width="48" height="48" viewBox="0 0 48 48" fill="none" xmlns="http://www.w3.org/2000/svg">
<g clip-path="url(#clip0)">
<path fill-rule="evenodd" clip-rule="evenodd" d="M36.7279 36.7279C29.6985 43.7573 18.3015 43.7573 11.2721 36.7279C5.27491 30.7307 4.39423 21.5546 8.63003 14.6238L13.8857 12.9344C16.3783 12.1333 18.2392 15.2534 16.3497 17.0657C13.4018 19.8933 15.4802 24.8675 19.5635 24.7571L20.5971 24.7292C21.9323 24.6931 23.1156 25.5835 23.4508 26.8763L23.5806 27.377C23.2491 27.345 22.9067 27.3682 22.5653 27.4535L16.9084 28.8677C15.301 29.2696 14.3237 30.8984 14.7256 32.5058C15.1274 34.1132 16.7562 35.0904 18.3636 34.6886L21.11 34.002L21.7967 36.7484C22.1608 38.2052 23.546 39.1683 25.0384 39.0025C32.8577 38.1336 36.4445 32.5926 37.4156 30.0031C37.7754 29.0436 37.6205 27.9668 37.005 27.1476C36.3894 26.3283 35.3982 25.88 34.3765 25.9586L32.3063 26.1178L31.5066 22.9188C31.1048 21.3114 29.4759 20.3342 27.8686 20.736C26.2612 21.1379 25.2839 22.7667 25.6857 24.374L27.1 30.0309C27.2827 30.7619 27.7234 31.3702 28.3071 31.7728C27.8976 32.0133 27.4479 32.2337 26.955 32.4233L25.3868 26.3744C24.8178 24.1799 22.8093 22.6687 20.5431 22.7299L19.5095 22.7579C17.2538 22.8188 16.1057 20.0711 17.7341 18.5091C21.1546 15.2282 17.7859 9.58003 13.2737 11.0304L10.7167 11.8523C10.8967 11.6558 11.0818 11.4623 11.2721 11.272C18.3015 4.24261 29.6985 4.24261 36.7279 11.272C43.7574 18.3015 43.7574 29.6985 36.7279 36.7279ZM38.1421 38.1421C30.3317 45.9526 17.6683 45.9526 9.85786 38.1421C2.04738 30.3316 2.04738 17.6683 9.85786 9.85783C17.6684 2.04735 30.3316 2.04735 38.1421 9.85783C45.9526 17.6683 45.9526 30.3316 38.1421 38.1421ZM38.1421 22.5858C37.3611 23.3668 36.0948 23.3668 35.3137 22.5858C34.5327 21.8047 34.5327 20.5384 35.3137 19.7573C36.0948 18.9763 37.3611 18.9763 38.1421 19.7573C38.9232 20.5384 38.9232 21.8047 38.1421 22.5858ZM39.5563 24C37.9943 25.5621 35.4616 25.5621 33.8995 24C32.3374 22.4379 32.3374 19.9052 33.8995 18.3431C35.4616 16.781 37.9943 16.781 39.5563 18.3431C41.1184 19.9052 41.1184 22.4379 39.5563 24ZM35.406 28.349C35.2008 28.0759 34.8705 27.9265 34.5299 27.9527L31.6177 28.1767C31.1315 28.2141 30.6892 27.8953 30.5709 27.4222L29.5663 23.4039C29.4324 22.8681 28.8894 22.5423 28.3536 22.6763C27.8178 22.8102 27.4921 23.3532 27.626 23.889L29.0402 29.5458C29.1585 30.0189 29.6008 30.3377 30.0871 30.3003L30.5563 30.2643C30.9777 30.2318 31.3739 30.4678 31.5462 30.8538C31.7184 31.2398 31.6294 31.6923 31.3238 31.9843C30.1754 33.0816 28.5793 34.1234 26.4477 34.685C26.1891 34.7531 25.914 34.7148 25.6839 34.5787C25.4537 34.4426 25.2876 34.2199 25.2228 33.9605L24.263 30.1214C24.1291 29.5856 23.5861 29.2599 23.0503 29.3938L17.3935 30.808C16.8577 30.942 16.5319 31.4849 16.6659 32.0207C16.7998 32.5565 17.3428 32.8823 17.8786 32.7483L21.5951 31.8192C21.8524 31.7548 22.1247 31.7954 22.3522 31.9318C22.5796 32.0683 22.7435 32.2895 22.8078 32.5468L23.7369 36.2633C23.8583 36.7489 24.32 37.07 24.8175 37.0147C31.6643 36.2539 34.7468 31.4239 35.5429 29.3009C35.6628 28.981 35.6112 28.6221 35.406 28.349Z" fill="#333333"/>
</g>
<defs>
<clipPath id="clip0">
<rect width="48" height="48" fill="white"/>
</clipPath>
</defs>
</svg>
