<svg width="48" height="48" viewBox="0 0 48 48" fill="none" xmlns="http://www.w3.org/2000/svg">
<path fill-rule="evenodd" clip-rule="evenodd" d="M13 31C14.6579 31 16 29.6579 16 28C16 26.3421 14.6579 25 13 25C11.3421 25 10 26.3421 10 28C10 29.6579 11.3421 31 13 31ZM13 33C15.7625 33 18 30.7625 18 28C18 25.2375 15.7625 23 13 23C10.2375 23 8 25.2375 8 28C8 30.7625 10.2375 33 13 33Z" fill="#333333"/>
<path fill-rule="evenodd" clip-rule="evenodd" d="M5.62151 38.7886C5.13552 39.2779 5 39.6725 5 40V41H23V40C23 39.6725 22.8645 39.2779 22.3785 38.7886C21.8742 38.2809 21.089 37.7792 20.0758 37.3364C18.0387 36.4461 15.5615 36 14 36C12.4385 36 9.96135 36.4461 7.92418 37.3364C6.91097 37.7792 6.12576 38.2809 5.62151 38.7886ZM14 34C10.3288 34 3 36.01 3 40V43H25V40C25 36.01 17.6713 34 14 34Z" fill="#333333"/>
<path fill-rule="evenodd" clip-rule="evenodd" d="M35 31C36.6579 31 38 29.6579 38 28C38 26.3421 36.6579 25 35 25C33.3421 25 32 26.3421 32 28C32 29.6579 33.3421 31 35 31ZM35 33C37.7625 33 40 30.7625 40 28C40 25.2375 37.7625 23 35 23C32.2375 23 30 25.2375 30 28C30 30.7625 32.2375 33 35 33Z" fill="#333333"/>
<path fill-rule="evenodd" clip-rule="evenodd" d="M24 29C25.1054 29 26 28.1054 26 27C26 25.8946 25.1054 25 24 25C22.8946 25 22 25.8946 22 27C22 28.1054 22.8946 29 24 29ZM24 31C26.21 31 28 29.21 28 27C28 24.79 26.21 23 24 23C21.79 23 20 24.79 20 27C20 29.21 21.79 31 24 31Z" fill="#333333"/>
<path fill-rule="evenodd" clip-rule="evenodd" d="M25.6215 38.7886C25.1355 39.2779 25 39.6725 25 40V41H43V40C43 39.6725 42.8645 39.2779 42.3785 38.7886C41.8742 38.2809 41.089 37.7792 40.0758 37.3364C38.0387 36.4461 35.5615 36 34 36C32.4385 36 29.9613 36.4461 27.9242 37.3364C26.911 37.7792 26.1258 38.2809 25.6215 38.7886ZM34 34C30.3288 34 23 36.01 23 40V43H45V40C45 36.01 37.6713 34 34 34Z" fill="#333333"/>
<path fill-rule="evenodd" clip-rule="evenodd" d="M24 34C20.6907 34 18.3717 35.5425 17.7071 36.2071L16.2928 34.7929C17.2949 33.7909 20.1092 32 24 32C27.8907 32 30.705 33.7909 31.7071 34.7929L30.2928 36.2071C29.6282 35.5425 27.3092 34 24 34Z" fill="#333333"/>
<path fill-rule="evenodd" clip-rule="evenodd" d="M15.2 15.0833H12.0417C9.80952 15.0833 8 13.2738 8 11.0417C8 8.80952 9.80952 7 12.0417 7H17.9583C20.1905 7 22 8.80952 22 11.0417C22 13.6246 20.1922 15.345 17.7312 16.5319C16.859 16.9525 15.9752 17.267 15.2 17.4966V15.0833ZM13.2 20C13.2 20 14.0163 19.8898 15.2 19.5741C18.322 18.7415 24 16.4798 24 11.0417C24 7.70495 21.2951 5 17.9583 5H12.0417C8.70495 5 6 7.70495 6 11.0417C6 14.3784 8.70495 17.0833 12.0417 17.0833H13.2V20Z" fill="#333333"/>
<path fill-rule="evenodd" clip-rule="evenodd" d="M33.6 16.0833H35.9583C38.1905 16.0833 40 14.2738 40 12.0417C40 9.80952 38.1905 8 35.9583 8H32.0417C29.8095 8 28 9.80952 28 12.0417C28 14.7488 29.671 16.4454 31.7537 17.5754C32.3818 17.9161 33.0172 18.1856 33.6 18.3957V16.0833ZM35.6 21C35.6 21 34.7709 20.8741 33.6 20.5058C30.7866 19.6211 26 17.3376 26 12.0417C26 8.70495 28.7049 6 32.0417 6H35.9583C39.2951 6 42 8.70495 42 12.0417C42 15.3784 39.2951 18.0833 35.9583 18.0833H35.6V21Z" fill="#333333"/>
</svg>
