<svg width="48" height="48" viewBox="0 0 48 48" fill="none" xmlns="http://www.w3.org/2000/svg">
<path fill-rule="evenodd" clip-rule="evenodd" d="M13.5 20C14.8817 20 16 18.8817 16 17.5C16 16.1183 14.8817 15 13.5 15C12.1183 15 11 16.1183 11 17.5C11 18.8817 12.1183 20 13.5 20ZM13.5 22C15.9862 22 18 19.9862 18 17.5C18 15.0137 15.9862 13 13.5 13C11.0138 13 9 15.0137 9 17.5C9 19.9862 11.0138 22 13.5 22Z" fill="#333333"/>
<path fill-rule="evenodd" clip-rule="evenodd" d="M6.51219 28.4814C6.09388 28.9026 6 29.2178 6 29.4545V34H22V29.4545C22 29.2178 21.9061 28.9026 21.4878 28.4814C21.0512 28.0418 20.3597 27.597 19.4507 27.1997C17.6218 26.4004 15.3946 26 14 26C12.6054 26 10.3782 26.4004 8.54933 27.1997C7.64026 27.597 6.94877 28.0418 6.51219 28.4814ZM14 24C10.6625 24 4 25.8273 4 29.4545V36H24V29.4545C24 25.8273 17.3375 24 14 24Z" fill="#333333"/>
<path fill-rule="evenodd" clip-rule="evenodd" d="M34.5 20C35.8817 20 37 18.8817 37 17.5C37 16.1183 35.8817 15 34.5 15C33.1183 15 32 16.1183 32 17.5C32 18.8817 33.1183 20 34.5 20ZM34.5 22C36.9863 22 39 19.9862 39 17.5C39 15.0137 36.9863 13 34.5 13C32.0138 13 30 15.0137 30 17.5C30 19.9862 32.0138 22 34.5 22Z" fill="#333333"/>
<path fill-rule="evenodd" clip-rule="evenodd" d="M24 18C25.1054 18 26 17.1054 26 16C26 14.8946 25.1054 14 24 14C22.8946 14 22 14.8946 22 16C22 17.1054 22.8946 18 24 18ZM24 20C26.21 20 28 18.21 28 16C28 13.79 26.21 12 24 12C21.79 12 20 13.79 20 16C20 18.21 21.79 20 24 20Z" fill="#333333"/>
<path fill-rule="evenodd" clip-rule="evenodd" d="M26.5122 28.4814C26.0939 28.9026 26 29.2178 26 29.4545V34H42V29.4545C42 29.2178 41.9061 28.9026 41.4878 28.4814C41.0512 28.0418 40.3597 27.597 39.4507 27.1997C37.6218 26.4004 35.3946 26 34 26C32.6054 26 30.3782 26.4004 28.5493 27.1997C27.6403 27.597 26.9488 28.0418 26.5122 28.4814ZM34 24C30.6625 24 24 25.8273 24 29.4545V36H44V29.4545C44 25.8273 37.3375 24 34 24Z" fill="#333333"/>
<path fill-rule="evenodd" clip-rule="evenodd" d="M24 24C20.6907 24 18.3717 25.5425 17.7071 26.2071L16.2929 24.7929C17.2949 23.7909 20.1093 22 24 22C27.8907 22 30.7051 23.7909 31.7071 24.7929L30.2929 26.2071C29.6283 25.5425 27.3093 24 24 24Z" fill="#333333"/>
</svg>
