<svg width="48" height="48" viewBox="0 0 48 48" fill="none" xmlns="http://www.w3.org/2000/svg">
<path fill-rule="evenodd" clip-rule="evenodd" d="M18.1153 18.8227C18.0397 19.2027 18 19.5963 18 20C18 23.3137 20.6863 26 24 26C27.3137 26 30 23.3137 30 20C30 19.5963 29.9603 19.2027 29.8847 18.8227C25.7458 17.821 22.2542 17.821 18.1153 18.8227ZM17.0383 17.0311C21.9546 15.7515 26.0454 15.7515 30.9617 17.0311C31.3004 17.1193 31.5683 17.3781 31.6682 17.7135C31.8843 18.4392 32 19.207 32 20C32 24.4183 28.4183 28 24 28C19.5817 28 16 24.4183 16 20C16 19.207 16.1157 18.4392 16.3318 17.7135C16.4317 17.3781 16.6996 17.1193 17.0383 17.0311Z" fill="#333333"/>
<path fill-rule="evenodd" clip-rule="evenodd" d="M12.1056 35.5528C12.3526 35.0588 12.9532 34.8586 13.4472 35.1056L15 35.882L16.5528 35.1056C17.0468 34.8586 17.6474 35.0588 17.8944 35.5528C18.1414 36.0468 17.9412 36.6474 17.4472 36.8944L15.4472 37.8944C15.1657 38.0352 14.8343 38.0352 14.5528 37.8944L12.5528 36.8944C12.0588 36.6474 11.8586 36.0468 12.1056 35.5528Z" fill="#333333"/>
<path fill-rule="evenodd" clip-rule="evenodd" d="M12.5889 27.9965C12.8362 28.4904 12.6362 29.0912 12.1424 29.3384L8.44766 31.1882C7.95382 31.4354 7.35304 31.2355 7.10579 30.7417C6.85854 30.2478 7.05845 29.6471 7.5523 29.3998L11.247 27.55C11.7409 27.3028 12.3417 27.5027 12.5889 27.9965Z" fill="#333333"/>
<path fill-rule="evenodd" clip-rule="evenodd" d="M40 9H42V30H40V9Z" fill="#333333"/>
<path fill-rule="evenodd" clip-rule="evenodd" d="M24 8C19.9763 8 16.6667 11.3631 16.6667 15.5714C16.6667 16.1583 16.5248 16.7211 16.3261 17.2238C19.0441 16.4616 21.5129 16.0714 24 16.0714C26.4871 16.0714 28.9559 16.4616 31.6739 17.2238C31.4752 16.7211 31.3333 16.1583 31.3333 15.5714C31.3333 11.3631 28.0237 8 24 8ZM34.7173 18.3033C35.0396 18.635 35.0923 19.1446 34.8447 19.5353C34.5969 19.9262 34.1134 20.096 33.6757 19.9459C29.9908 18.6826 26.9796 18.0714 24 18.0714C21.0204 18.0714 18.0092 18.6826 14.3243 19.9459C13.8866 20.096 13.4031 19.9262 13.1554 19.5353C12.9077 19.1446 12.9604 18.635 13.2827 18.3033L13.2904 18.2951C13.2987 18.2863 13.3125 18.2714 13.3311 18.251C13.3682 18.2101 13.424 18.147 13.4922 18.0652C13.6295 17.9005 13.8125 17.665 13.9942 17.3847C14.3777 16.793 14.6667 16.1361 14.6667 15.5714C14.6667 10.312 18.819 6 24 6C29.181 6 33.3333 10.312 33.3333 15.5714C33.3333 16.1361 33.6223 16.793 34.0058 17.3847C34.1875 17.665 34.3705 17.9005 34.5078 18.0652C34.576 18.147 34.6318 18.2101 34.6689 18.251C34.6875 18.2714 34.7013 18.2863 34.7096 18.2951L34.7173 18.3033Z" fill="#333333"/>
<path d="M23.8268 9.12528C23.8811 8.95824 24.1173 8.95824 24.1716 9.12528L24.6657 10.6458C24.69 10.7205 24.7596 10.771 24.8381 10.771H26.4369C26.6124 10.771 26.6855 10.9957 26.5434 11.0989L25.25 12.0387C25.1865 12.0849 25.1598 12.1666 25.1841 12.2413L25.6782 13.7619C25.7324 13.9288 25.5413 14.0678 25.3992 13.9646L24.1058 13.0248C24.0423 12.9786 23.9563 12.9786 23.8927 13.0248L22.5993 13.9646C22.4572 14.0678 22.266 13.9288 22.3203 13.7619L22.8144 12.2413C22.8386 12.1666 22.8121 12.0849 22.7486 12.0387L21.4551 11.0989C21.313 10.9957 21.386 10.771 21.5616 10.771H23.1604C23.2389 10.771 23.3085 10.7205 23.3328 10.6458L23.8268 9.12528Z" fill="#333333"/>
<path fill-rule="evenodd" clip-rule="evenodd" d="M31.0422 40.3793L33.6422 31.7127L35.5578 32.2873L32.9578 40.954L31.0422 40.3793Z" fill="#333333"/>
<path fill-rule="evenodd" clip-rule="evenodd" d="M42 36.5C42 32.4407 31.0755 29.8827 23.4706 30.0066C16.2579 30.1242 6 32.4407 6 36.5V42H42V36.5ZM40 40V36.5C40 36.458 39.9676 36.0593 39.0191 35.3882C38.1207 34.7525 36.7428 34.1321 34.9996 33.5964C31.532 32.5308 27.11 31.9476 23.5032 32.0064C20.0556 32.0626 15.8855 32.6489 12.6361 33.6813C11.0008 34.2008 9.72521 34.7943 8.90015 35.4008C8.04793 36.0274 8 36.4117 8 36.5V40H40Z" fill="#333333"/>
<path fill-rule="evenodd" clip-rule="evenodd" d="M37 25.1606V27.6812L40 28.9669V23.4464L37 25.1606ZM35 24V29L42 32V20L35 24Z" fill="#333333"/>
</svg>
