<svg width="48" height="48" viewBox="0 0 48 48" fill="none" xmlns="http://www.w3.org/2000/svg">
<path fill-rule="evenodd" clip-rule="evenodd" d="M16.8786 28C16.8786 28 6 31.3932 6 35.4669V42.0002H42V35.4669C42 31.3932 31.1214 28 31.1214 28L25.1492 32.1931C24.4596 32.6773 23.5404 32.6773 22.8508 32.1931L16.8786 28ZM31.441 30.2193L26.2985 33.8299C24.9192 34.7983 23.0808 34.7983 21.7015 33.8299L16.559 30.2193C16.3582 30.2906 16.1299 30.3734 15.88 30.4669C14.9001 30.8337 13.6095 31.3579 12.3325 31.9953C11.0365 32.6422 9.84957 33.3592 9.01561 34.0878C8.11492 34.8746 8 35.3426 8 35.4669V40.0002H40V35.4669C40 35.3426 39.8851 34.8746 38.9844 34.0878C38.1504 33.3592 36.9635 32.6422 35.6675 31.9953C34.3905 31.3579 33.0999 30.8337 32.12 30.4669C31.8701 30.3734 31.6418 30.2906 31.441 30.2193Z" fill="#333333"/>
<path d="M30 34H36V36H30V34Z" fill="#333333"/>
<path d="M32 38V32H34V38H32Z" fill="#333333"/>
<path fill-rule="evenodd" clip-rule="evenodd" d="M24 8C21.7606 8 18.971 8.73846 17.1351 9.32064C16.6753 9.46642 16.4055 9.97763 16.5884 10.4958L18.6122 16.23C22.1994 15.09 25.8006 15.09 29.3878 16.23L31.4116 10.4958C31.5945 9.97763 31.3247 9.46642 30.8649 9.32064C29.029 8.73846 26.2394 8 24 8ZM16.5305 7.41419C18.3904 6.82444 21.431 6 24 6C26.569 6 29.6096 6.82444 31.4695 7.41419C33.0697 7.92161 33.834 9.64176 33.2976 11.1614L30.943 17.8328C30.8536 18.0861 30.6661 18.2928 30.4226 18.4063C30.1792 18.5198 29.9004 18.5306 29.6489 18.4363C25.8753 17.0212 22.1247 17.0212 18.3511 18.4363C18.0996 18.5306 17.8208 18.5198 17.5774 18.4063C17.3339 18.2928 17.1464 18.0861 17.057 17.8328L14.7024 11.1614C14.166 9.64175 14.9303 7.92161 16.5305 7.41419Z" fill="#333333"/>
<path d="M21 11H27V13H21V11Z" fill="#333333"/>
<path d="M23 15V9H25V15H23Z" fill="#333333"/>
<path fill-rule="evenodd" clip-rule="evenodd" d="M29.6489 18.4363C25.8753 17.0212 22.1247 17.0212 18.3511 18.4363C18.2996 18.4556 18.247 18.4706 18.1937 18.4811C18.0673 18.9657 18 19.4746 18 20C18 23.3137 20.6863 26 24 26C27.3137 26 30 23.3137 30 20C30 19.4746 29.9327 18.9657 29.8063 18.4811C29.753 18.4705 29.7004 18.4556 29.6489 18.4363ZM29.425 16.2419C25.8131 15.0861 22.1869 15.0861 18.575 16.2419C18.4036 16.0017 18.1311 15.8451 17.8272 15.8249C17.4283 15.7984 17.0519 16.0121 16.8702 16.3682C16.3135 17.4592 16 18.6945 16 20C16 24.4183 19.5817 28 24 28C28.4183 28 32 24.4183 32 20C32 18.6945 31.6865 17.4592 31.1298 16.3682C30.9481 16.0121 30.5717 15.7984 30.1728 15.8249C29.8689 15.8451 29.5964 16.0017 29.425 16.2419Z" fill="#333333"/>
</svg>
