<svg width="48" height="48" viewBox="0 0 48 48" fill="none" xmlns="http://www.w3.org/2000/svg">
<path d="M12 35H19V36.2457C19 36.6922 18.704 37.0846 18.2747 37.2072L15.7747 37.9215C15.5952 37.9728 15.4048 37.9728 15.2253 37.9215L12.7253 37.2072C12.296 37.0846 12 36.6922 12 36.2457V35Z" fill="#333333"/>
<path fill-rule="evenodd" clip-rule="evenodd" d="M16.8786 28C16.8786 28 6 31.3932 6 35.4668V42.0002H42V35.4668C42 31.3932 31.1214 28 31.1214 28L24.6443 33.4571C24.272 33.7708 23.728 33.7708 23.3557 33.4571L16.8786 28ZM31.5466 30.257L25.933 34.9866C24.8161 35.9276 23.1839 35.9276 22.067 34.9866L16.4534 30.257C16.2793 30.3192 16.0871 30.3894 15.88 30.4669C14.9001 30.8337 13.6095 31.3579 12.3325 31.9953C11.0365 32.6421 9.84957 33.3592 9.01561 34.0878C8.11492 34.8746 8 35.3426 8 35.4668V40.0002H40V35.4668C40 35.3426 39.8851 34.8746 38.9844 34.0878C38.1504 33.3592 36.9635 32.6421 35.6675 31.9953C34.3905 31.3579 33.0999 30.8337 32.12 30.4669C31.9129 30.3894 31.7207 30.3192 31.5466 30.257Z" fill="#333333"/>
<path d="M33.3355 33.1253C33.3873 32.9582 33.6127 32.9582 33.6645 33.1253L34.1361 34.6458C34.1593 34.7204 34.2257 34.771 34.3006 34.771H35.8267C35.9942 34.771 36.064 34.9957 35.9283 35.0989L34.6938 36.0386C34.6332 36.0849 34.6078 36.1666 34.6309 36.2413L35.1025 37.7619C35.1543 37.9288 34.9719 38.0678 34.8362 37.9645L33.6017 37.0247C33.5411 36.9786 33.459 36.9786 33.3984 37.0247L32.1638 37.9645C32.0281 38.0678 31.8457 37.9288 31.8975 37.7619L32.3691 36.2413C32.3922 36.1666 32.3669 36.0849 32.3063 36.0386L31.0717 35.0989C30.936 34.9957 31.0058 34.771 31.1733 34.771H32.6994C32.7743 34.771 32.8407 34.7204 32.8639 34.6458L33.3355 33.1253Z" fill="#333333"/>
<path fill-rule="evenodd" clip-rule="evenodd" d="M33.6645 33.1253C33.6127 32.9582 33.3873 32.9582 33.3355 33.1253L32.8639 34.6458C32.8407 34.7204 32.7743 34.771 32.6994 34.771H31.1733C31.0058 34.771 30.936 34.9957 31.0717 35.0989L32.3063 36.0386C32.3669 36.0849 32.3922 36.1666 32.3691 36.2413L31.8975 37.7619C31.8457 37.9288 32.0281 38.0678 32.1638 37.9645L33.3984 37.0247C33.459 36.9786 33.5411 36.9786 33.6017 37.0247L34.8362 37.9645C34.9719 38.0678 35.1543 37.9288 35.1025 37.7619L34.6309 36.2413C34.6078 36.1666 34.6332 36.0849 34.6938 36.0386L35.9283 35.0989C36.064 34.9957 35.9942 34.771 35.8267 34.771H34.3006C34.2257 34.771 34.1593 34.7204 34.1361 34.6458L33.6645 33.1253Z" fill="#333333"/>
<path fill-rule="evenodd" clip-rule="evenodd" d="M18.6379 14.5H29.3621V16.5H18.6379V14.5ZM17.0583 16.8978C17.3794 16.8059 17.7251 16.8803 17.9799 17.0962C18.7469 17.7461 20.419 18.5 24 18.5C27.581 18.5 29.2531 17.7461 30.0201 17.0962C30.2749 16.8803 30.6206 16.8059 30.9417 16.8978C31.2627 16.9896 31.5167 17.2357 31.6187 17.5536C31.8666 18.326 32 19.1484 32 20C32 24.4183 28.4183 28 24 28C19.5817 28 16 24.4183 16 20C16 19.1484 16.1334 18.326 16.3813 17.5536C16.4833 17.2357 16.7373 16.9896 17.0583 16.8978ZM18.0234 19.4654C18.0079 19.6414 18 19.8197 18 20C18 23.3137 20.6863 26 24 26C27.3137 26 30 23.3137 30 20C30 19.8197 29.9921 19.6414 29.9766 19.4654C28.6393 20.0936 26.7252 20.5 24 20.5C21.2748 20.5 19.3607 20.0936 18.0234 19.4654Z" fill="#333333"/>
<path fill-rule="evenodd" clip-rule="evenodd" d="M24.1836 6.01698L24 6.99999L23.8164 6.01698L24 5.9827L24.1836 6.01698ZM32.7737 15.9299C32.9778 15.7138 33.2368 15.3991 33.4919 14.9775C34.0107 14.1202 34.5 12.8419 34.5 11.0968C34.5 10.4481 34.1676 9.93084 33.8134 9.56163C33.4559 9.1889 32.9882 8.87216 32.4999 8.60187C31.5188 8.05889 30.2538 7.59543 29.0452 7.22198C27.8252 6.84499 26.6112 6.54431 25.7062 6.33841C25.2526 6.23522 24.8742 6.15528 24.6083 6.10098C24.4753 6.07382 24.3703 6.05304 24.298 6.03895L24.2146 6.02285L24.1923 6.01862L24.1836 6.01698C24.1834 6.01695 24.1836 6.01698 24 6.99999C23.8164 6.01698 23.8166 6.01695 23.8164 6.01698L23.8077 6.01862L23.7854 6.02285L23.702 6.03895C23.6297 6.05304 23.5247 6.07382 23.3917 6.10098C23.1258 6.15528 22.7474 6.23522 22.2938 6.33841C21.3888 6.54431 20.1748 6.84499 18.9548 7.22198C17.7462 7.59543 16.4812 8.05889 15.5001 8.60187C15.0118 8.87216 14.5441 9.1889 14.1866 9.56163C13.8324 9.93084 13.5 10.4481 13.5 11.0968C13.5 12.8418 13.9894 14.12 14.508 14.9773C14.7632 15.399 15.0222 15.7137 15.2263 15.9298C15.2353 16.0451 15.2515 16.1744 15.2786 16.3145C15.3803 16.8416 15.6347 17.5135 16.2176 18.1661C17.3855 19.4739 19.6743 20.5 24 20.5C28.3257 20.5 30.6145 19.4739 31.7824 18.1661C32.3653 17.5135 32.6197 16.8416 32.7214 16.3145C32.7485 16.1744 32.7647 16.0452 32.7737 15.9299ZM30.5378 16.5H17.4622C17.5262 16.6071 17.6071 16.7195 17.7092 16.8339C18.3275 17.5261 19.9251 18.5 24 18.5C28.0749 18.5 29.6725 17.5261 30.2908 16.8339C30.3929 16.7195 30.4738 16.6071 30.5378 16.5ZM16.6283 14.5H31.3717C31.4853 14.3732 31.6316 14.1886 31.7808 13.9421C32.1239 13.375 32.4961 12.4583 32.5 11.1179C32.4911 11.0973 32.4609 11.0407 32.3702 10.9462C32.2082 10.7773 31.9337 10.5744 31.5314 10.3517C30.7312 9.90882 29.6212 9.49325 28.4548 9.13283C27.2998 8.77595 26.1388 8.48792 25.2625 8.28858C24.8255 8.18915 24.4617 8.11233 24.2081 8.06053C24.127 8.04398 24.0573 8.02999 24 8.01864C23.9427 8.02999 23.873 8.04398 23.7919 8.06053C23.5383 8.11233 23.1745 8.18915 22.7375 8.28858C21.8612 8.48792 20.7002 8.77595 19.5452 9.13283C18.3788 9.49325 17.2688 9.90882 16.4686 10.3517C16.0663 10.5744 15.7918 10.7773 15.6298 10.9462C15.5391 11.0407 15.5089 11.0973 15.5 11.1179C15.5039 12.4582 15.8761 13.3749 16.2192 13.942C16.3684 14.1885 16.5147 14.3732 16.6283 14.5ZM15.4968 11.1268C15.4968 11.1268 15.4969 11.1261 15.4975 11.1245L15.4968 11.1268ZM32.5032 11.1268C32.5032 11.1268 32.5029 11.126 32.5025 11.1245L32.5032 11.1268Z" fill="#333333"/>
<path d="M26 10.5667C26 10.5667 24.5333 10.0333 24 9.49999C23.4667 10.0333 22 10.5667 22 10.5667C22 10.5667 22.4 13.5 24 13.5C25.6 13.5 26 10.5667 26 10.5667Z" fill="#333333"/>
</svg>
