<svg width="48" height="48" viewBox="0 0 48 48" fill="none" xmlns="http://www.w3.org/2000/svg">
<path fill-rule="evenodd" clip-rule="evenodd" d="M30.1715 30.4329C30.4075 30.1463 30.7829 30.0141 31.1464 30.0894C33.7099 30.6206 36.3329 31.4268 38.3414 32.5334C40.2835 33.6035 42 35.1562 42 37.2979V41C42 41.5523 41.5523 42 41 42H7C6.44772 42 6 41.5523 6 41V37.2979C6 35.1679 7.75055 33.6251 9.69161 32.5636C11.7083 31.4607 14.3321 30.649 16.8647 30.1103C17.2297 30.0326 17.6075 30.1646 17.8447 30.4527L24 37.9269L30.1715 30.4329ZM31.3282 32.1745L24.8837 40H40V37.2979C40 36.3329 39.2043 35.2924 37.3762 34.2851C35.7547 33.3917 33.5878 32.6808 31.3282 32.1745ZM23.1163 40L16.6903 32.197C14.4547 32.71 12.2842 33.4253 10.6513 34.3183C8.79922 35.3312 8 36.3643 8 37.2979V40H23.1163Z" fill="#333333"/>
<path d="M35 35.3333C35 35.3333 33.6667 34.6666 33 34C32.3333 34.6666 31 35.3333 31 35.3333C31 35.3333 31.6983 38 33 38C34.3017 38 35 35.3333 35 35.3333Z" fill="#333333"/>
<path fill-rule="evenodd" clip-rule="evenodd" d="M20.5 31C20.5 29.8954 21.3954 29 22.5 29H25.5C26.6046 29 27.5 29.8954 27.5 31V32.3819C27.5 33.0488 27.1683 33.6653 26.6267 34.0344L27.1253 36.5273L25.1641 36.9195L24.5194 33.6961C24.431 33.2539 24.6494 32.8072 25.0528 32.6055L25.5 32.3819V31H22.5V32.3819L22.9472 32.6055C23.3458 32.8048 23.5644 33.2438 23.4833 33.682L22.9277 36.682L20.9612 36.3179L21.3828 34.0409C20.8356 33.6725 20.5 33.0527 20.5 32.3819V31Z" fill="#333333"/>
<path fill-rule="evenodd" clip-rule="evenodd" d="M18.6379 14.5H29.3621V16.5H18.6379V14.5ZM17.0583 16.8977C17.3794 16.8059 17.7251 16.8803 17.9799 17.0962C18.7469 17.746 20.419 18.5 24 18.5C27.581 18.5 29.2531 17.746 30.0201 17.0962C30.2749 16.8803 30.6206 16.8059 30.9417 16.8977C31.2627 16.9896 31.5167 17.2356 31.6187 17.5536C31.8666 18.3259 32 19.1483 32 20C32 24.4183 28.4183 28 24 28C19.5817 28 16 24.4183 16 20C16 19.1483 16.1334 18.3259 16.3813 17.5536C16.4833 17.2356 16.7373 16.9896 17.0583 16.8977ZM18.0234 19.4654C18.0079 19.6414 18 19.8197 18 20C18 23.3137 20.6863 26 24 26C27.3137 26 30 23.3137 30 20C30 19.8197 29.9921 19.6414 29.9766 19.4654C28.6393 20.0936 26.7252 20.5 24 20.5C21.2748 20.5 19.3607 20.0936 18.0234 19.4654Z" fill="#333333"/>
<path fill-rule="evenodd" clip-rule="evenodd" d="M24.1836 6.01695L24 6.99996L23.8164 6.01695L24 5.98267L24.1836 6.01695ZM32.7737 15.9298C32.9778 15.7137 33.2368 15.3991 33.4919 14.9774C34.0107 14.1201 34.5 12.8419 34.5 11.0967C34.5 10.4481 34.1676 9.93081 33.8134 9.5616C33.4559 9.18886 32.9882 8.87213 32.4999 8.60184C31.5188 8.05886 30.2538 7.5954 29.0452 7.22195C27.8252 6.84496 26.6112 6.54428 25.7062 6.33838C25.2526 6.23519 24.8742 6.15525 24.6083 6.10095C24.4753 6.07379 24.3703 6.05301 24.298 6.03892L24.2146 6.02282L24.1923 6.01859L24.1836 6.01695C24.1834 6.01692 24.1836 6.01695 24 6.99996C23.8164 6.01695 23.8166 6.01692 23.8164 6.01695L23.8077 6.01859L23.7854 6.02282L23.702 6.03892C23.6297 6.05301 23.5247 6.07379 23.3917 6.10095C23.1258 6.15525 22.7474 6.23519 22.2938 6.33838C21.3888 6.54428 20.1748 6.84496 18.9548 7.22195C17.7462 7.5954 16.4812 8.05886 15.5001 8.60184C15.0118 8.87213 14.5441 9.18886 14.1866 9.5616C13.8324 9.93081 13.5 10.4481 13.5 11.0967C13.5 12.8417 13.9894 14.12 14.508 14.9773C14.7632 15.399 15.0222 15.7137 15.2263 15.9298C15.2353 16.0451 15.2515 16.1743 15.2786 16.3145C15.3803 16.8415 15.6347 17.5135 16.2176 18.1661C17.3855 19.4738 19.6743 20.5 24 20.5C28.3257 20.5 30.6145 19.4738 31.7824 18.1661C32.3653 17.5135 32.6197 16.8415 32.7214 16.3145C32.7485 16.1743 32.7647 16.0452 32.7737 15.9298ZM30.5378 16.5H17.4622C17.5262 16.6071 17.6071 16.7194 17.7092 16.8338C18.3275 17.5261 19.9251 18.5 24 18.5C28.0749 18.5 29.6725 17.5261 30.2908 16.8338C30.3929 16.7194 30.4738 16.6071 30.5378 16.5ZM16.6283 14.5H31.3717C31.4853 14.3732 31.6316 14.1886 31.7808 13.9421C32.1239 13.375 32.4961 12.4583 32.5 11.1179C32.4911 11.0973 32.4609 11.0407 32.3702 10.9461C32.2082 10.7773 31.9337 10.5744 31.5314 10.3517C30.7312 9.90879 29.6212 9.49322 28.4548 9.1328C27.2998 8.77592 26.1388 8.48789 25.2625 8.28855C24.8255 8.18912 24.4617 8.1123 24.2081 8.0605C24.127 8.04394 24.0573 8.02995 24 8.01861C23.9427 8.02995 23.873 8.04395 23.7919 8.0605C23.5383 8.1123 23.1745 8.18912 22.7375 8.28855C21.8612 8.48789 20.7002 8.77592 19.5452 9.1328C18.3788 9.49322 17.2688 9.90879 16.4686 10.3517C16.0663 10.5744 15.7918 10.7773 15.6298 10.9461C15.5391 11.0407 15.5089 11.0973 15.5 11.1179C15.5039 12.4581 15.8761 13.3748 16.2192 13.942C16.3684 14.1885 16.5147 14.3732 16.6283 14.5ZM15.4968 11.1268C15.4968 11.1268 15.4969 11.126 15.4975 11.1245L15.4968 11.1268ZM32.5032 11.1268C32.5032 11.1268 32.5029 11.126 32.5025 11.1245L32.5032 11.1268Z" fill="#333333"/>
<path d="M25.5 11.5C25.5 12.3284 24.8284 13 24 13C23.1716 13 22.5 12.3284 22.5 11.5C22.5 10.6715 23.1716 9.99996 24 9.99996C24.8284 9.99996 25.5 10.6715 25.5 11.5Z" fill="#333333"/>
</svg>
