<svg width="48" height="48" viewBox="0 0 48 48" fill="none" xmlns="http://www.w3.org/2000/svg">
<path fill-rule="evenodd" clip-rule="evenodd" d="M19.101 14H28.8989V16H19.101V14ZM16.6263 17.643C16.85 17.5003 17.1213 17.4523 17.3804 17.5097C18.6863 17.799 20.7733 18 24 18C27.2266 18 29.3136 17.799 30.6195 17.5097C30.8786 17.4523 31.1499 17.5003 31.3737 17.643C31.5974 17.7858 31.7552 18.0116 31.8124 18.2708C31.9353 18.8285 32 19.4073 32 20C32 24.4183 28.4182 28 24 28C19.5817 28 16 24.4183 16 20C16 19.4073 16.0646 18.8285 16.1876 18.2708C16.2447 18.0116 16.4025 17.7858 16.6263 17.643ZM18.0096 19.6565C18.0032 19.7701 18 19.8846 18 20C18 23.3137 20.6863 26 24 26C27.3137 26 30 23.3137 30 20C30 19.8846 29.9967 19.7701 29.9903 19.6565C28.5384 19.8744 26.5884 20 24 20C21.4115 20 19.4615 19.8744 18.0096 19.6565Z" fill="#333333"/>
<path fill-rule="evenodd" clip-rule="evenodd" d="M17.0018 10.3184C17.0173 11.666 17.1292 12.7558 17.2396 13.5179C17.2656 13.6971 17.2915 13.8581 17.3159 14H30.684C30.7085 13.8582 30.7343 13.6972 30.7603 13.518C30.8707 12.756 30.9826 11.6662 30.9981 10.3184C30.9377 10.2667 30.8579 10.2034 30.7565 10.1299C30.3959 9.86852 29.8482 9.54016 29.1595 9.2186C27.7774 8.57329 25.9236 8 24 8C22.0763 8 20.2225 8.57329 18.8404 9.2186C18.1517 9.54016 17.604 9.86852 17.2434 10.1299C17.1421 10.2034 17.0623 10.2667 17.0018 10.3184ZM31.2119 16H16.7881C16.7869 16.0008 16.7857 16.0016 16.7845 16.0024C16.6445 16.0963 16.464 16.2269 16.2903 16.3784C16.1117 16.5343 15.9707 16.6862 15.8834 16.8179C15.8572 16.8576 15.8402 16.8885 15.8293 16.9113C15.8406 16.9217 15.855 16.9341 15.8732 16.9485C16.0223 17.0658 16.3446 17.2395 16.9726 17.4099C18.2249 17.7495 20.3993 18 24 18C27.6006 18 29.775 17.7495 31.0273 17.4099C31.6553 17.2395 31.9776 17.0658 32.1267 16.9485C32.145 16.9341 32.1593 16.9217 32.1706 16.9113C32.1597 16.8885 32.1428 16.8576 32.1165 16.8179C32.0293 16.6862 31.8882 16.5343 31.7096 16.3784C31.536 16.2269 31.3555 16.0963 31.2154 16.0024C31.2142 16.0016 31.2131 16.0008 31.2119 16ZM15.3817 14.5451C15.3437 14.3398 15.3019 14.092 15.2603 13.8047C15.1293 12.9001 15 11.6019 15 10C15 9.68632 15.1339 9.45204 15.1963 9.35253C15.2742 9.22832 15.3666 9.12107 15.4493 9.0349C15.6171 8.86022 15.8326 8.68248 16.0696 8.51068C16.5495 8.16273 17.2105 7.77234 17.9943 7.4064C19.5571 6.67671 21.7034 6 24 6C26.2965 6 28.4428 6.67671 30.0056 7.4064C30.7894 7.77234 31.4504 8.16273 31.9304 8.51068C32.1674 8.68248 32.3829 8.86022 32.5506 9.0349C32.6333 9.12107 32.7257 9.22832 32.8036 9.35253C32.866 9.45204 33 9.68632 33 10C33 11.6021 32.8707 12.9003 32.7396 13.8048C32.698 14.0921 32.6562 14.3398 32.6182 14.5452C32.7459 14.6399 32.8849 14.7495 33.0247 14.8716C33.2758 15.0907 33.5605 15.3763 33.7838 15.7133C34.0025 16.0434 34.22 16.5109 34.1855 17.0624C34.1484 17.6557 33.8339 18.1501 33.3635 18.5202C32.9168 18.8717 32.3056 19.1355 31.5508 19.3401C30.0374 19.7505 27.6493 20 24 20C20.3506 20 17.9625 19.7505 16.4492 19.3401C15.6944 19.1355 15.0831 18.8717 14.6365 18.5202C14.166 18.1501 13.8515 17.6557 13.8144 17.0624C13.7799 16.5109 13.9975 16.0434 14.2161 15.7133C14.4394 15.3763 14.7241 15.0907 14.9752 14.8716C15.1151 14.7495 15.254 14.6399 15.3817 14.5451Z" fill="#333333"/>
<path d="M21 11C21 10.4477 21.4477 10 22 10H26C26.5522 10 27 10.4477 27 11C27 11.5523 26.5522 12 26 12H22C21.4477 12 21 11.5523 21 11Z" fill="#333333"/>
<path fill-rule="evenodd" clip-rule="evenodd" d="M23 36.5V32H25V36.5H23Z" fill="#333333"/>
<path fill-rule="evenodd" clip-rule="evenodd" d="M32.6933 38.6706L26.2588 40.3948L25.7411 38.4629L32.1757 36.7388L32.6933 38.6706Z" fill="#333333"/>
<path fill-rule="evenodd" clip-rule="evenodd" d="M21.7411 40.3948L15.3066 38.6706L15.8243 36.7388L22.2588 38.4629L21.7411 40.3948Z" fill="#333333"/>
<path fill-rule="evenodd" clip-rule="evenodd" d="M31.6117 36.7444C31.1828 35.144 32.1326 33.499 33.733 33.0701L35.6648 32.5525C37.2652 32.1237 38.9103 33.0734 39.3391 34.6738L40.1155 37.5716C40.5444 39.172 39.5946 40.817 37.9942 41.2458L36.0624 41.7635C34.462 42.1923 32.817 41.2426 32.3881 39.6422L31.6117 36.7444ZM34.2506 35.002C33.7172 35.1449 33.4006 35.6933 33.5435 36.2267L34.32 39.1245C34.4629 39.658 35.0113 39.9746 35.5447 39.8316L37.4766 39.314C38.01 39.171 38.3266 38.6227 38.1837 38.0892L37.4072 35.1915C37.2643 34.658 36.716 34.3414 36.1825 34.4844L34.2506 35.002Z" fill="#333333"/>
<path fill-rule="evenodd" clip-rule="evenodd" d="M8.6564 34.673C9.08523 33.0726 10.7302 32.1229 12.3306 32.5517L14.2625 33.0694C15.8629 33.4982 16.8126 35.1432 16.3838 36.7436L15.6074 39.6414C15.1785 41.2418 13.5335 42.1915 11.9331 41.7627L10.0013 41.245C8.40087 40.8162 7.45112 39.1712 7.87994 37.5708L8.6564 34.673ZM11.813 34.4836C11.2795 34.3406 10.7312 34.6572 10.5883 35.1907L9.8118 38.0884C9.66885 38.6219 9.98544 39.1703 10.5189 39.3132L12.4508 39.8308C12.9842 39.9738 13.5326 39.6572 13.6755 39.1237L14.452 36.2259C14.5949 35.6925 14.2783 35.1441 13.7448 35.0012L11.813 34.4836Z" fill="#333333"/>
<path fill-rule="evenodd" clip-rule="evenodd" d="M24 40C24.5522 40 25 39.5523 25 39C25 38.4477 24.5522 38 24 38C23.4477 38 23 38.4477 23 39C23 39.5523 23.4477 40 24 40ZM24 42C25.6568 42 27 40.6569 27 39C27 37.3431 25.6568 36 24 36C22.3431 36 21 37.3431 21 39C21 40.6569 22.3431 42 24 42Z" fill="#333333"/>
<path fill-rule="evenodd" clip-rule="evenodd" d="M24 32C19.5817 32 16 35.5817 16 40V41C16 41.5523 15.5523 42 15 42C14.4477 42 14 41.5523 14 41V40C14 34.4772 18.4771 30 24 30C29.5228 30 34 34.4772 34 40V41C34 41.5523 33.5522 42 33 42C32.4477 42 32 41.5523 32 41V40C32 35.5817 28.4182 32 24 32Z" fill="#333333"/>
</svg>
