<svg width="48" height="48" viewBox="0 0 48 48" fill="none" xmlns="http://www.w3.org/2000/svg">
<path d="M42 39.5C42 40.8807 38.6421 42 34.5 42C30.3578 42 27 40.8807 27 39.5C27 38.1193 30.3578 37 34.5 37C38.6421 37 42 38.1193 42 39.5Z" fill="#333333"/>
<path fill-rule="evenodd" clip-rule="evenodd" d="M38.743 39.5C37.6605 39.2018 36.1821 39 34.5 39C32.8178 39 31.3394 39.2018 30.2569 39.5C31.3394 39.7982 32.8178 40 34.5 40C36.1821 40 37.6605 39.7982 38.743 39.5ZM34.5 42C38.6421 42 42 40.8807 42 39.5C42 38.1193 38.6421 37 34.5 37C30.3578 37 27 38.1193 27 39.5C27 40.8807 30.3578 42 34.5 42Z" fill="#333333"/>
<path d="M31.1171 19.0534C31.1171 19.6352 30.6432 20.1068 30.0585 20.1068C29.4739 20.1068 29 19.6352 29 19.0534C29 18.4716 29.4739 18 30.0585 18C30.6432 18 31.1171 18.4716 31.1171 19.0534Z" fill="#333333"/>
<path d="M33.1757 25.5801C33.1757 26.4528 32.4648 27.1602 31.5878 27.1602C30.7109 27.1602 30 26.4528 30 25.5801C30 24.7075 30.7109 24 31.5878 24C32.4648 24 33.1757 24.7075 33.1757 25.5801Z" fill="#333333"/>
<path d="M37.1171 29.0534C37.1171 29.6352 36.6432 30.1068 36.0585 30.1068C35.4739 30.1068 35 29.6352 35 29.0534C35 28.4716 35.4739 28 36.0585 28C36.6432 28 37.1171 28.4716 37.1171 29.0534Z" fill="#333333"/>
<path d="M32.1171 32.0534C32.1171 32.6352 31.6432 33.1068 31.0585 33.1068C30.4739 33.1068 30 32.6352 30 32.0534C30 31.4716 30.4739 31 31.0585 31C31.6432 31 32.1171 31.4716 32.1171 32.0534Z" fill="#333333"/>
<path d="M38.1757 36.5801C38.1757 37.4528 37.4648 38.1602 36.5878 38.1602C35.7109 38.1602 35 37.4528 35 36.5801C35 35.7075 35.7109 35 36.5878 35C37.4648 35 38.1757 35.7075 38.1757 36.5801Z" fill="#333333"/>
<path fill-rule="evenodd" clip-rule="evenodd" d="M26.9393 8.41919C25.8285 7.66504 24.2959 7.95403 23.5218 9.08722C22.7489 10.2186 23.0399 11.7414 24.1488 12.4942C25.2596 13.2484 26.7923 12.9594 27.5664 11.8262C28.3392 10.6948 28.0483 9.17206 26.9393 8.41919ZM21.8703 7.95911C23.2578 5.92786 26.0277 5.38292 28.0627 6.7645C30.0996 8.14738 30.6066 10.9213 29.2178 12.9543C27.8303 14.9856 25.0604 15.5305 23.0254 14.1489C22.9801 14.1181 22.9355 14.0867 22.8916 14.0545C22.9256 15.1873 22.8018 16.5126 22.6307 17.7506C22.4568 19.0095 22.2283 20.2177 22.0442 21.1084C21.9645 21.4938 21.8928 21.8213 21.8369 22.0695C21.8923 22.1308 21.9534 22.1984 22.0193 22.2716C22.3473 22.6356 22.7968 23.1373 23.2826 23.6881C24.243 24.777 25.3807 26.0974 25.9822 26.9117C26.4234 27.5089 26.5748 28.1795 26.4324 28.8273C26.2974 29.4413 25.9236 29.925 25.5177 30.259C25.1103 30.5942 24.6077 30.8327 24.0969 30.9251C23.5997 31.015 22.9637 30.9848 22.4322 30.5915C22.3371 30.5212 22.2082 30.4215 22.0526 30.2982L21.9896 30.6086C21.8252 31.4194 21.6016 32.5233 21.3646 33.6958C20.8903 36.0427 20.3636 38.6584 20.1506 39.7515C19.8112 41.4936 18.2578 42.1352 16.9802 41.9752C15.7141 41.8168 14.3591 40.8297 14.3891 39.0905C14.4086 37.9556 14.5491 35.8559 14.6818 34.0676C14.7486 33.1674 14.8142 32.3366 14.8631 31.7309C14.8735 31.6018 14.8832 31.4829 14.8919 31.3758L10.3335 28.7393L10.3241 28.7341C10.3118 28.7271 10.2951 28.7177 10.2744 28.7057C10.2329 28.6818 10.1752 28.6479 10.1039 28.6042C9.96141 28.5168 9.76348 28.3898 9.53123 28.2255C9.06953 27.899 8.45786 27.4149 7.87475 26.7904C6.72706 25.5612 5.5431 23.6144 6.17486 21.2013C6.34347 20.5572 6.81283 19.663 7.38967 18.7368C7.98661 17.7784 8.76241 16.686 9.62513 15.6194C10.4869 14.5539 11.4488 13.4976 12.4204 12.6198C13.3773 11.7553 14.4072 11.0053 15.4067 10.6292C16.9996 10.0298 18.1468 9.63399 19.1361 9.68106C19.8998 9.7174 20.5059 10.008 21.0888 10.4168C21.1012 9.56817 21.3555 8.71274 21.8703 7.95911ZM11.3054 26.9913C11.3127 26.9953 11.3198 26.9993 11.327 27.0034L16.4414 29.9615C16.7767 30.1554 16.9698 30.5255 16.9372 30.9114L16.9152 31.1752C16.9011 31.3451 16.8809 31.5904 16.8566 31.8918C16.808 32.4945 16.7427 33.3209 16.6763 34.2156C16.5426 36.017 16.4071 38.0575 16.3888 39.125C16.3808 39.5882 16.7021 39.9248 17.2286 39.9907C17.4835 40.0226 17.7109 39.9707 17.8681 39.8739C18.0057 39.7891 18.1336 39.6458 18.1875 39.3691C18.4022 38.2674 18.9305 35.6435 19.4043 33.2996C19.6413 32.1266 19.865 31.0223 20.0295 30.2112L20.299 28.8825L20.344 28.8914C20.3439 28.8913 20.3441 28.8914 20.344 28.8914L20.299 28.8825C20.3006 28.875 20.3022 28.8672 20.3039 28.8597C20.304 28.859 20.3039 28.8583 20.3039 28.8575C19.8336 28.4597 19.3316 28.0281 18.8424 27.5974C17.9706 26.9085 16.812 25.9665 15.8718 25.1972C15.3972 24.8089 14.9769 24.4634 14.6753 24.215C14.5244 24.0908 14.4032 23.9909 14.3197 23.9219L14.1906 23.8153C13.7701 23.4677 13.7053 22.8467 14.0457 22.4203L16.7816 18.9931C17.0859 18.6119 17.6209 18.5059 18.0476 18.7422C18.4743 18.9786 18.6682 19.4883 18.5066 19.9484L18.5039 19.9561L18.4945 19.9832C18.4861 20.0076 18.4736 20.0442 18.4576 20.0917C18.4256 20.1867 18.3799 20.3246 18.3263 20.4933C18.2186 20.8318 18.0806 21.2886 17.9564 21.7687C17.8309 22.2539 17.7262 22.7375 17.6769 23.1366C17.6522 23.3365 17.6444 23.4919 17.6486 23.6027C17.6498 23.6329 17.6517 23.6555 17.6535 23.6717C17.6773 23.7038 17.7272 23.7687 17.8181 23.8719C17.9595 24.0323 18.1535 24.2335 18.3926 24.4682C18.8645 24.9315 19.4765 25.49 20.1242 26.0612C20.6152 26.4486 20.9762 26.7242 21.144 26.8381C21.4776 27.0646 21.7313 27.3236 21.9154 27.5999C22.6882 28.248 23.3201 28.7579 23.5969 28.9652C23.6159 28.9682 23.6609 28.9715 23.741 28.957C23.8999 28.9283 24.0907 28.8431 24.2469 28.7147C24.4045 28.585 24.4643 28.465 24.479 28.3978C24.4864 28.3645 24.5039 28.2764 24.3736 28.1C23.8322 27.3672 22.7532 26.1114 21.7826 25.011C21.3028 24.467 20.8583 23.9708 20.5336 23.6105C20.3713 23.4304 20.2391 23.2844 20.1476 23.1836L20.0422 23.0676L20.0063 23.0283C19.7819 22.7823 19.694 22.4402 19.7729 22.1167L19.7741 22.1118L19.7784 22.0939L19.7958 22.0209C19.8111 21.9562 19.8335 21.8601 19.8616 21.7368C19.9177 21.4901 19.9964 21.1348 20.0856 20.7034C20.2643 19.839 20.4837 18.6773 20.6496 17.4769C20.8166 16.268 20.9236 15.0587 20.8916 14.086C20.8756 13.5984 20.8255 13.2095 20.7488 12.9264C20.6733 12.6479 20.5986 12.5701 20.5993 12.5694C20.5993 12.5694 20.5999 12.5698 20.6011 12.5708C19.7266 11.8472 19.4145 11.6966 19.0411 11.6788C18.5486 11.6554 17.8208 11.8576 16.1112 12.501C15.4594 12.7463 14.6501 13.3007 13.7611 14.1038C12.8869 14.8936 11.9962 15.8682 11.1802 16.8771C10.365 17.8849 9.63762 18.9106 9.08733 19.7942C8.51694 20.71 8.19504 21.3817 8.10965 21.7078C7.73181 23.1511 8.38986 24.4115 9.3366 25.4255C9.8007 25.9226 10.2993 26.3191 10.6862 26.5927C10.8781 26.7285 11.039 26.8315 11.1493 26.8991C11.2043 26.9329 11.2465 26.9576 11.2733 26.9731L11.3016 26.9892L11.3054 26.9913C11.3052 26.9912 11.3056 26.9914 11.3054 26.9913Z" fill="#333333"/>
</svg>
