<svg width="48" height="48" viewBox="0 0 48 48" fill="none" xmlns="http://www.w3.org/2000/svg">
<path fill-rule="evenodd" clip-rule="evenodd" d="M21 5C21 4.44772 21.4477 4 22 4H26C26.5523 4 27 4.44772 27 5C27 5.55228 26.5523 6 26 6H25V12C25 12.5523 24.5523 13 24 13C23.4477 13 23 12.5523 23 12V6H22C21.4477 6 21 5.55228 21 5Z" fill="#333333"/>
<path fill-rule="evenodd" clip-rule="evenodd" d="M24 35C24.5523 35 25 35.4477 25 36V42H26C26.5523 42 27 42.4477 27 43C27 43.5523 26.5523 44 26 44H22C21.4477 44 21 43.5523 21 43C21 42.4477 21.4477 42 22 42H23V36C23 35.4477 23.4477 35 24 35Z" fill="#333333"/>
<path fill-rule="evenodd" clip-rule="evenodd" d="M12.6862 39.5562C12.2957 39.9468 11.6625 39.9468 11.272 39.5562L8.44359 36.7278C8.05307 36.3373 8.05307 35.7041 8.44359 35.3136C8.83412 34.9231 9.46728 34.9231 9.85781 35.3136L10.5649 36.0207L14.8076 31.7781C15.1981 31.3875 15.8312 31.3875 16.2218 31.7781C16.6123 32.1686 16.6123 32.8017 16.2218 33.1923L11.9791 37.4349L12.6862 38.142C13.0768 38.5325 13.0768 39.1657 12.6862 39.5562Z" fill="#333333"/>
<path fill-rule="evenodd" clip-rule="evenodd" d="M31.7781 16.2217C31.3876 15.8312 31.3876 15.198 31.7781 14.8075L36.0208 10.5649L35.3137 9.85775C34.9231 9.46722 34.9231 8.83406 35.3137 8.44353C35.7042 8.05301 36.3373 8.05301 36.7279 8.44353L39.5563 11.272C39.9468 11.6625 39.9468 12.2956 39.5563 12.6862C39.1658 13.0767 38.5326 13.0767 38.1421 12.6862L37.435 11.9791L33.1923 16.2217C32.8018 16.6122 32.1686 16.6122 31.7781 16.2217Z" fill="#333333"/>
<path fill-rule="evenodd" clip-rule="evenodd" d="M8.44365 12.6864C8.05313 12.2958 8.05313 11.6627 8.44365 11.2721L11.2721 8.44371C11.6626 8.05319 12.2958 8.05319 12.6863 8.44371C13.0768 8.83424 13.0768 9.4674 12.6863 9.85793L11.9792 10.565L16.2218 14.8077C16.6123 15.1982 16.6123 15.8314 16.2218 16.2219C15.8313 16.6124 15.1981 16.6124 14.8076 16.2219L10.565 11.9792L9.85786 12.6864C9.46734 13.0769 8.83417 13.0769 8.44365 12.6864Z" fill="#333333"/>
<path fill-rule="evenodd" clip-rule="evenodd" d="M31.7782 31.7782C32.1687 31.3877 32.8019 31.3877 33.1924 31.7782L37.435 36.0209L38.1421 35.3138C38.5327 34.9232 39.1658 34.9232 39.5563 35.3138C39.9469 35.7043 39.9469 36.3375 39.5563 36.728L36.7279 39.5564C36.3374 39.9469 35.7042 39.9469 35.3137 39.5564C34.9232 39.1659 34.9232 38.5327 35.3137 38.1422L36.0208 37.4351L31.7782 33.1925C31.3876 32.8019 31.3876 32.1688 31.7782 31.7782Z" fill="#333333"/>
<path fill-rule="evenodd" clip-rule="evenodd" d="M5 27.0002C4.44772 27.0002 4 26.5525 4 26.0002V22.0002C4 21.448 4.44772 21.0002 5 21.0002C5.55228 21.0002 6 21.448 6 22.0002V23.0002H12C12.5523 23.0002 13 23.448 13 24.0002C13 24.5525 12.5523 25.0002 12 25.0002H6V26.0002C6 26.5525 5.55228 27.0002 5 27.0002Z" fill="#333333"/>
<path fill-rule="evenodd" clip-rule="evenodd" d="M35 24.0002C35 23.448 35.4477 23.0002 36 23.0002H42V22.0002C42 21.448 42.4477 21.0002 43 21.0002C43.5523 21.0002 44 21.448 44 22.0002V26.0002C44 26.5525 43.5523 27.0002 43 27.0002C42.4477 27.0002 42 26.5525 42 26.0002V25.0002H36C35.4477 25.0002 35 24.5525 35 24.0002Z" fill="#333333"/>
<path fill-rule="evenodd" clip-rule="evenodd" d="M16.5 20.5C17.0523 20.5 17.5 20.9477 17.5 21.5V23H18.5V21.5C18.5 20.9477 18.9477 20.5 19.5 20.5C20.0523 20.5 20.5 20.9477 20.5 21.5V26.5C20.5 27.0523 20.0523 27.5 19.5 27.5C18.9477 27.5 18.5 27.0523 18.5 26.5V25H17.5V26.5C17.5 27.0523 17.0523 27.5 16.5 27.5C15.9477 27.5 15.5 27.0523 15.5 26.5V21.5C15.5 20.9477 15.9477 20.5 16.5 20.5Z" fill="#333333"/>
<path fill-rule="evenodd" clip-rule="evenodd" d="M21.5 21.5C21.5 20.9477 21.9477 20.5 22.5 20.5H25.5C26.0523 20.5 26.5 20.9477 26.5 21.5C26.5 22.0523 26.0523 22.5 25.5 22.5H25V25.5H25.5C26.0523 25.5 26.5 25.9477 26.5 26.5C26.5 27.0523 26.0523 27.5 25.5 27.5H22.5C21.9477 27.5 21.5 27.0523 21.5 26.5C21.5 25.9477 21.9477 25.5 22.5 25.5H23V22.5H22.5C21.9477 22.5 21.5 22.0523 21.5 21.5Z" fill="#333333"/>
<path fill-rule="evenodd" clip-rule="evenodd" d="M30.5 27.5C30.9089 27.5 31.2766 27.251 31.4285 26.8714L33.4285 21.8714C33.6336 21.3586 33.3842 20.7766 32.8714 20.5715C32.3586 20.3664 31.7766 20.6158 31.5715 21.1286L30.5 23.8074L29.4285 21.1286C29.2234 20.6158 28.6414 20.3664 28.1286 20.5715C27.6158 20.7766 27.3664 21.3586 27.5715 21.8714L29.5715 26.8714C29.7234 27.251 30.0911 27.5 30.5 27.5Z" fill="#333333"/>
<path fill-rule="evenodd" clip-rule="evenodd" d="M24 11C16.8203 11 11 16.8203 11 24C11 31.1797 16.8203 37 24 37C31.1797 37 37 31.1797 37 24C37 16.8203 31.1797 11 24 11ZM9 24C9 15.7157 15.7157 9 24 9C32.2843 9 39 15.7157 39 24C39 32.2843 32.2843 39 24 39C15.7157 39 9 32.2843 9 24Z" fill="#333333"/>
</svg>
