<svg width="48" height="48" viewBox="0 0 48 48" fill="none" xmlns="http://www.w3.org/2000/svg">
<path fill-rule="evenodd" clip-rule="evenodd" d="M28 8.3579C27.4625 8.3579 26.9475 8.14152 26.5714 7.75754L25.4393 6.60207C24.6529 5.79931 23.3471 5.79931 22.5607 6.60207L21.4286 7.75754C21.0525 8.14151 20.5375 8.3579 20 8.3579H14C12.8809 8.3579 12 9.25408 12 10.3273V34.0306C12 35.1038 12.8809 36 14 36H34C35.1191 36 36 35.1038 36 34.0306V10.3273C36 9.25408 35.1191 8.3579 34 8.3579H28ZM38 10.3273V34.0306C38 36.2228 36.2091 38 34 38H14C11.7909 38 10 36.2228 10 34.0306V10.3273C10 8.13507 11.7909 6.3579 14 6.3579H20L21.132 5.20243C22.7027 3.59919 25.2973 3.59919 26.868 5.20243L28 6.3579H34C36.2091 6.3579 38 8.13508 38 10.3273Z" fill="#333333"/>
<path fill-rule="evenodd" clip-rule="evenodd" d="M20 10C20.4037 10 20.7678 10.2427 20.9231 10.6154L24.6645 19.5947C24.6706 19.6086 24.6765 19.6226 24.682 19.6368L25.9231 22.6154C26.1355 23.1252 25.8944 23.7107 25.3846 23.9231C24.8748 24.1355 24.2893 23.8944 24.0769 23.3846L23.0833 21H16.9167L15.9231 23.3846C15.7107 23.8944 15.1252 24.1355 14.6154 23.9231C14.1056 23.7107 13.8645 23.1252 14.0769 22.6154L15.318 19.6368C15.3235 19.6226 15.3294 19.6086 15.3355 19.5947L19.0769 10.6154C19.2322 10.2427 19.5963 10 20 10ZM17.75 19H22.25L20 13.6L17.75 19Z" fill="#333333"/>
<path fill-rule="evenodd" clip-rule="evenodd" d="M26 17C26 16.4477 26.4477 16 27 16H33C33.5523 16 34 16.4477 34 17C34 17.5523 33.5523 18 33 18H27C26.4477 18 26 17.5523 26 17Z" fill="#333333"/>
<path fill-rule="evenodd" clip-rule="evenodd" d="M23 44V36H25V44H23Z" fill="#333333"/>
<path fill-rule="evenodd" clip-rule="evenodd" d="M30 40H18V38H30V40Z" fill="#333333"/>
<path fill-rule="evenodd" clip-rule="evenodd" d="M34.0689 28.6419C32.7749 27.8889 30.9145 27.4415 28.5081 28.8613C25.551 30.606 22.766 31.0586 19.9243 31.1191C18.6899 31.1453 17.4295 31.0975 16.1531 31.049C15.9779 31.0424 15.8025 31.0357 15.6267 31.0292C14.1588 30.9751 12.6498 30.9321 11.0416 30.9991L10.9584 29.0009C12.6501 28.9304 14.2255 28.9762 15.7005 29.0306C15.8789 29.0372 16.0556 29.0439 16.2306 29.0505C17.5141 29.0991 18.7109 29.1444 19.8818 29.1195C22.5089 29.0636 24.924 28.6538 27.4919 27.1387C30.6105 25.2987 33.2501 25.8514 35.0748 26.9133C35.9625 27.4298 36.6445 28.0561 37.1022 28.5473C37.3325 28.7944 37.5101 29.0115 37.6323 29.1703C37.6935 29.2498 37.7411 29.3151 37.7749 29.3626C37.7917 29.3863 37.8051 29.4056 37.8151 29.4201L37.8273 29.4382L37.8315 29.4444L37.8338 29.4478C37.8341 29.4483 37.8343 29.4487 37 30C36.1657 30.5512 36.1659 30.5516 36.1662 30.552L36.1647 30.5498C36.1611 30.5446 36.1543 30.5348 36.1444 30.5208C36.1245 30.4928 36.0921 30.4482 36.0475 30.3903C35.9581 30.2742 35.821 30.1059 35.6392 29.9109C35.2727 29.5177 34.7407 29.0328 34.0689 28.6419Z" fill="#333333"/>
<path d="M15 37H33C35.2091 37 37 35.2209 37 33.0262V29.5L32.5 27L27 28.5L20.5 30L13.5227 30.3672C12.1085 30.4417 11 31.6101 11 33.0262C11 35.2209 12.7909 37 15 37Z" fill="#333333"/>
<path fill-rule="evenodd" clip-rule="evenodd" d="M27 28.5L32.5 27L37 29.5V33.0262C37 35.2209 35.2091 37 33 37H15C12.7909 37 11 35.2209 11 33.0262C11 31.6101 12.1085 30.4417 13.5227 30.3672L20.5 30L27 28.5ZM35 30.6768L32.2406 29.1438L27.5262 30.4295C27.5009 30.4364 27.4753 30.4429 27.4497 30.4488L20.9497 31.9488C20.8365 31.9749 20.7212 31.9911 20.6051 31.9972L13.6278 32.3645C13.2759 32.383 13 32.6738 13 33.0262C13 34.1039 13.883 35 15 35H33C34.117 35 35 34.1039 35 33.0262V30.6768Z" fill="#333333"/>
<path fill-rule="evenodd" clip-rule="evenodd" d="M30 13C30.5523 13 31 13.4477 31 14V20C31 20.5523 30.5523 21 30 21C29.4477 21 29 20.5523 29 20V14C29 13.4477 29.4477 13 30 13Z" fill="#333333"/>
</svg>
