<svg width="48" height="48" viewBox="0 0 48 48" fill="none" xmlns="http://www.w3.org/2000/svg">
<path fill-rule="evenodd" clip-rule="evenodd" d="M20.3879 5.53462C22.3567 3.48846 25.6433 3.48846 27.6121 5.53462L28.1398 6.0831H33.3302C35.903 6.0831 38 8.1569 38 10.7289V15H36V10.7289C36 9.27385 34.8109 8.0831 33.3302 8.0831H27.7143C27.4424 8.0831 27.1822 7.97238 26.9937 7.77645L26.1709 6.92133C24.9889 5.69289 23.0111 5.69289 21.8291 6.92133L21.0063 7.77645C20.8178 7.97238 20.5576 8.0831 20.2857 8.0831H15C13.3369 8.0831 12 9.4207 12 11.0569V33.0262C12 34.6624 13.3369 36 15 36H33C34.6631 36 36 34.6624 36 33.0262V23H38V33.0262C38 35.7794 35.7552 38 33 38H15C12.2448 38 10 35.7793 10 33.0262V11.0569C10 8.30376 12.2448 6.0831 15 6.0831H19.8602L20.3879 5.53462Z" fill="#333333"/>
<path fill-rule="evenodd" clip-rule="evenodd" d="M23 44V36H25V44H23Z" fill="#333333"/>
<path fill-rule="evenodd" clip-rule="evenodd" d="M30 40H18V38H30V40Z" fill="#333333"/>
<path fill-rule="evenodd" clip-rule="evenodd" d="M34.0689 28.6418C32.7749 27.8888 30.9145 27.4415 28.5081 28.8612C25.551 30.6059 22.766 31.0586 19.9243 31.119C18.6899 31.1453 17.4295 31.0974 16.1531 31.049C15.9779 31.0423 15.8025 31.0357 15.6267 31.0292C14.1588 30.975 12.6498 30.9321 11.0416 30.9991L10.9584 29.0008C12.6501 28.9303 14.2255 28.9761 15.7005 29.0306C15.8789 29.0371 16.0556 29.0438 16.2306 29.0505C17.5141 29.0991 18.7109 29.1444 19.8818 29.1195C22.5089 29.0636 24.924 28.6537 27.4919 27.1387C30.6105 25.2987 33.2501 25.8513 35.0748 26.9132C35.9625 27.4298 36.6445 28.0561 37.1022 28.5472C37.3325 28.7943 37.5101 29.0115 37.6323 29.1703C37.6935 29.2498 37.7411 29.315 37.7749 29.3625C37.7917 29.3863 37.8051 29.4056 37.8151 29.4201L37.8273 29.4382L37.8315 29.4444L37.8338 29.4478C37.8341 29.4482 37.8343 29.4487 37 29.9999C36.1657 30.5511 36.1659 30.5515 36.1662 30.5519L36.1647 30.5497C36.1611 30.5445 36.1543 30.5347 36.1444 30.5208C36.1245 30.4928 36.0921 30.4482 36.0475 30.3903C35.9581 30.2741 35.821 30.1059 35.6392 29.9108C35.2727 29.5177 34.7407 29.0328 34.0689 28.6418Z" fill="#333333"/>
<path fill-rule="evenodd" clip-rule="evenodd" d="M18.5 14C18.8973 14 19.2569 14.2351 19.4162 14.5991L22.0324 20.5791C22.0387 20.5926 22.0447 20.6063 22.0504 20.6201L22.9162 22.5991C23.1375 23.1051 22.9068 23.6947 22.4008 23.9161C21.8948 24.1375 21.3052 23.9067 21.0838 23.4008L20.471 22H16.529L15.9162 23.4008C15.6948 23.9067 15.1052 24.1375 14.5992 23.9161C14.0932 23.6947 13.8625 23.1051 14.0838 22.5991L14.9496 20.6201C14.9553 20.6063 14.9613 20.5926 14.9676 20.5791L17.5838 14.5991C17.7431 14.2351 18.1027 14 18.5 14ZM17.404 20H19.596L18.5 17.4948L17.404 20Z" fill="#333333"/>
<path fill-rule="evenodd" clip-rule="evenodd" d="M24 15C24 14.4477 24.4477 14 25 14H28.125C29.7726 14 31 15.4049 31 17C31 17.7511 30.7278 18.46 30.2678 19C30.7278 19.5399 31 20.2488 31 21C31 22.595 29.7726 24 28.125 24H25C24.7348 24 24.4804 23.8946 24.2929 23.7071C24.1054 23.5195 24 23.2652 24 23V15ZM28.125 18C28.5484 18 29 17.614 29 17C29 16.3859 28.5484 16 28.125 16H26V18H28.125ZM26 20H28.125C28.5484 20 29 20.3859 29 21C29 21.614 28.5484 22 28.125 22H26V20Z" fill="#333333"/>
<path fill-rule="evenodd" clip-rule="evenodd" d="M32 19C32 18.4477 32.4477 18 33 18H37C37.5523 18 38 18.4477 38 19C38 19.5522 37.5523 20 37 20H33C32.4477 20 32 19.5522 32 19Z" fill="#333333"/>
<path fill-rule="evenodd" clip-rule="evenodd" d="M35 22C34.4477 22 34 21.5522 34 21V17C34 16.4477 34.4477 16 35 16C35.5523 16 36 16.4477 36 17V21C36 21.5522 35.5523 22 35 22Z" fill="#333333"/>
<path d="M15 37H33C35.2091 37 37 35.2209 37 33.0262V29.5L32.5 27L27 28.5L20.5 30L13.5227 30.3672C12.1085 30.4417 11 31.6101 11 33.0262C11 35.2209 12.7909 37 15 37Z" fill="#333333"/>
<path fill-rule="evenodd" clip-rule="evenodd" d="M27 28.5L32.5 27L37 29.5V33.0262C37 35.2209 35.2091 37 33 37H15C12.7909 37 11 35.2209 11 33.0262C11 31.6101 12.1085 30.4417 13.5227 30.3672L20.5 30L27 28.5ZM35 30.6768L32.2406 29.1438L27.5262 30.4295C27.5009 30.4364 27.4753 30.4429 27.4497 30.4488L20.9497 31.9488C20.8365 31.9749 20.7212 31.9911 20.6051 31.9972L13.6278 32.3645C13.2759 32.383 13 32.6738 13 33.0262C13 34.1039 13.883 35 15 35H33C34.117 35 35 34.1039 35 33.0262V30.6768Z" fill="#333333"/>
</svg>
