<svg width="48" height="48" viewBox="0 0 48 48" fill="none" xmlns="http://www.w3.org/2000/svg">
<path fill-rule="evenodd" clip-rule="evenodd" d="M28 8.3579C27.4625 8.3579 26.9475 8.14152 26.5714 7.75754L25.4393 6.60207C24.6529 5.79931 23.3471 5.79931 22.5607 6.60207L21.4286 7.75754C21.0525 8.14151 20.5375 8.3579 20 8.3579H14C12.8809 8.3579 12 9.25408 12 10.3273V34.0306C12 35.1038 12.8809 36 14 36H34C35.1191 36 36 35.1038 36 34.0306V10.3273C36 9.25408 35.1191 8.3579 34 8.3579H28ZM38 10.3273V34.0306C38 36.2228 36.2091 38 34 38H14C11.7909 38 10 36.2228 10 34.0306V10.3273C10 8.13507 11.7909 6.3579 14 6.3579H20L21.132 5.20243C22.7027 3.59919 25.2973 3.59919 26.868 5.20243L28 6.3579H34C36.2091 6.3579 38 8.13508 38 10.3273Z" fill="#333333"/>
<path d="M15 37H33C35.2091 37 37 35.2209 37 33.0262V29.5L32.5 27L27 28.5L20.5 30L13.5227 30.3672C12.1085 30.4417 11 31.6101 11 33.0262C11 35.2209 12.7909 37 15 37Z" fill="#333333"/>
<path fill-rule="evenodd" clip-rule="evenodd" d="M27 28.5L32.5 27L37 29.5V33.0262C37 35.2209 35.2091 37 33 37H15C12.7909 37 11 35.2209 11 33.0262C11 31.6101 12.1085 30.4417 13.5227 30.3672L20.5 30L27 28.5ZM35 30.6768L32.2406 29.1438L27.5262 30.4295C27.5009 30.4364 27.4753 30.4429 27.4497 30.4488L20.9497 31.9488C20.8365 31.9749 20.7212 31.9911 20.6051 31.9972L13.6278 32.3645C13.2759 32.383 13 32.6738 13 33.0262C13 34.1039 13.883 35 15 35H33C34.117 35 35 34.1039 35 33.0262V30.6768Z" fill="#333333"/>
<path fill-rule="evenodd" clip-rule="evenodd" d="M15 12C15 11.4477 15.4477 11 16 11H21C23.2091 11 25 12.7909 25 15C25 16.1947 24.4762 17.2671 23.6458 18C24.4762 18.7329 25 19.8053 25 21C25 23.2091 23.2091 25 21 25H16C15.7348 25 15.4804 24.8946 15.2929 24.7071C15.1054 24.5196 15 24.2652 15 24V12ZM21 17C22.1046 17 23 16.1046 23 15C23 13.8954 22.1046 13 21 13H17V17H21ZM17 19H21C22.1046 19 23 19.8954 23 21C23 22.1046 22.1046 23 21 23H17V19Z" fill="#333333"/>
<path fill-rule="evenodd" clip-rule="evenodd" d="M26 18C26 17.4477 26.4477 17 27 17H32C32.5523 17 33 17.4477 33 18C33 18.5523 32.5523 19 32 19H27C26.4477 19 26 18.5523 26 18Z" fill="#333333"/>
<path fill-rule="evenodd" clip-rule="evenodd" d="M23 44V36H25V44H23Z" fill="#333333"/>
<path fill-rule="evenodd" clip-rule="evenodd" d="M30 40H18V38H30V40Z" fill="#333333"/>
<path fill-rule="evenodd" clip-rule="evenodd" d="M34.0689 28.6419C32.7749 27.8889 30.9145 27.4415 28.5081 28.8613C25.551 30.606 22.766 31.0586 19.9243 31.1191C18.6899 31.1453 17.4295 31.0975 16.1531 31.049C15.9779 31.0424 15.8025 31.0357 15.6267 31.0292C14.1588 30.9751 12.6498 30.9321 11.0416 30.9991L10.9584 29.0009C12.6501 28.9304 14.2255 28.9762 15.7005 29.0306C15.8789 29.0372 16.0556 29.0439 16.2306 29.0505C17.5141 29.0991 18.7109 29.1444 19.8818 29.1195C22.5089 29.0636 24.924 28.6538 27.4919 27.1387C30.6105 25.2987 33.2501 25.8514 35.0748 26.9133C35.9625 27.4298 36.6445 28.0561 37.1022 28.5473C37.3325 28.7944 37.5101 29.0115 37.6323 29.1703C37.6935 29.2498 37.7411 29.3151 37.7749 29.3626C37.7917 29.3863 37.8051 29.4056 37.8151 29.4201L37.8273 29.4382L37.8315 29.4444L37.8338 29.4478C37.8341 29.4483 37.8343 29.4487 37 30C36.1657 30.5512 36.1659 30.5516 36.1662 30.552L36.1647 30.5498C36.1611 30.5446 36.1543 30.5348 36.1444 30.5208C36.1245 30.4928 36.0921 30.4482 36.0475 30.3903C35.9581 30.2742 35.821 30.1059 35.6392 29.9109C35.2727 29.5177 34.7407 29.0328 34.0689 28.6419Z" fill="#333333"/>
</svg>
