<svg width="48" height="48" viewBox="0 0 48 48" fill="none" xmlns="http://www.w3.org/2000/svg">
<g clip-path="url(#clip0)">
<path fill-rule="evenodd" clip-rule="evenodd" d="M14.8326 13.4187C17.0532 11.4932 19.886 10.255 23 10.0352V12.0001C23 12.5523 23.4477 13.0001 24 13.0001C24.5523 13.0001 25 12.5523 25 12.0001V10.0352C28.1139 10.255 30.9466 11.4931 33.1671 13.4185L31.7782 14.8074C31.3877 15.198 31.3877 15.8311 31.7782 16.2217C32.1687 16.6122 32.8019 16.6122 33.1924 16.2217L34.5814 14.8327C36.5069 17.0533 37.7451 19.8861 37.9648 23.0001H36C35.4477 23.0001 35 23.4478 35 24.0001C35 24.5523 35.4477 25.0001 36 25.0001H37.9648C37.7451 28.114 36.507 30.9467 34.5815 33.1673L33.1924 31.7781C32.8019 31.3876 32.1687 31.3876 31.7782 31.7781C31.3876 32.1687 31.3876 32.8018 31.7782 33.1924L33.1673 34.5815C30.9467 36.507 28.1139 37.7451 25 37.9649V36.0001C25 35.4478 24.5523 35.0001 24 35.0001C23.4477 35.0001 23 35.4478 23 36.0001V37.9649C19.8862 37.7451 17.0535 36.5071 14.8329 34.5817L16.2218 33.1928C16.6123 32.8023 16.6123 32.1691 16.2218 31.7786C15.8313 31.3881 15.1981 31.3881 14.8076 31.7786L13.4187 33.1675C11.4931 30.9469 10.2549 28.1141 10.0352 25.0001H12C12.5523 25.0001 13 24.5523 13 24.0001C13 23.4478 12.5523 23.0001 12 23.0001H10.0352C10.2549 19.8862 11.493 17.0535 13.4184 14.833L14.8076 16.2222C15.1981 16.6127 15.8313 16.6127 16.2218 16.2222C16.6123 15.8317 16.6123 15.1985 16.2218 14.808L14.8326 13.4187ZM16 21.0001C16 20.4478 15.5523 20.0001 15 20.0001C14.4477 20.0001 14 20.4478 14 21.0001V27.0001C14 27.5523 14.4477 28.0001 15 28.0001C15.5523 28.0001 16 27.5523 16 27.0001V25.0001H18V27.0001C18 27.5523 18.4477 28.0001 19 28.0001C19.5523 28.0001 20 27.5523 20 27.0001V21.0001C20 20.4478 19.5523 20.0001 19 20.0001C18.4477 20.0001 18 20.4478 18 21.0001V23.0001H16V21.0001ZM21 21.0001C21 20.4478 21.4477 20.0001 22 20.0001H24.5C25.8807 20.0001 27 21.1193 27 22.5001C27 23.8808 25.8807 25.0001 24.5 25.0001H23V27.0001C23 27.5523 22.5523 28.0001 22 28.0001C21.4477 28.0001 21 27.5523 21 27.0001V21.0001ZM23 23.0001H24.5C24.7761 23.0001 25 22.7762 25 22.5001C25 22.2239 24.7761 22.0001 24.5 22.0001H23V23.0001ZM31.9231 27.3847C31.7678 27.7573 31.4037 28.0001 31 28.0001C30.5963 28.0001 30.2322 27.7573 30.0769 27.3847L27.5769 21.3847C27.3645 20.8749 27.6056 20.2894 28.1154 20.077C28.6252 19.8646 29.2107 20.1056 29.4231 20.6154L31 24.4001L32.5769 20.6154C32.7893 20.1056 33.3748 19.8646 33.8846 20.077C34.3944 20.2894 34.6355 20.8749 34.4231 21.3847L31.9231 27.3847Z" fill="#333333"/>
<path fill-rule="evenodd" clip-rule="evenodd" d="M21 5.00006C21 4.44778 21.4477 4.00006 22 4.00006H26C26.5523 4.00006 27 4.44778 27 5.00006C27 5.55235 26.5523 6.00006 26 6.00006H25V8.00006C25 8.55235 24.5523 9.00006 24 9.00006C23.4477 9.00006 23 8.55235 23 8.00006V6.00006H22C21.4477 6.00006 21 5.55235 21 5.00006Z" fill="#333333"/>
<path fill-rule="evenodd" clip-rule="evenodd" d="M24 39.0001C24.5523 39.0001 25 39.4478 25 40.0001V42.0001H26C26.5523 42.0001 27 42.4478 27 43.0001C27 43.5523 26.5523 44.0001 26 44.0001H22C21.4477 44.0001 21 43.5523 21 43.0001C21 42.4478 21.4477 42.0001 22 42.0001H23V40.0001C23 39.4478 23.4477 39.0001 24 39.0001Z" fill="#333333"/>
<path fill-rule="evenodd" clip-rule="evenodd" d="M12.6863 39.5568C12.2958 39.9473 11.6626 39.9473 11.2721 39.5568L8.44365 36.7283C8.05313 36.3378 8.05313 35.7047 8.44365 35.3141C8.83418 34.9236 9.46734 34.9236 9.85787 35.3141L10.565 36.0212L11.9792 34.607C12.3697 34.2165 13.0029 34.2165 13.3934 34.607C13.7839 34.9976 13.7839 35.6307 13.3934 36.0212L11.9792 37.4355L12.6863 38.1426C13.0768 38.5331 13.0768 39.1663 12.6863 39.5568Z" fill="#333333"/>
<path fill-rule="evenodd" clip-rule="evenodd" d="M34.6066 13.3938C34.2161 13.0033 34.2161 12.3701 34.6066 11.9796L36.0208 10.5654L35.3137 9.85829C34.9232 9.46777 34.9232 8.8346 35.3137 8.44408C35.7042 8.05356 36.3374 8.05356 36.7279 8.44408L39.5563 11.2725C39.9469 11.663 39.9469 12.2962 39.5563 12.6867C39.1658 13.0772 38.5327 13.0772 38.1421 12.6867L37.435 11.9796L36.0208 13.3938C35.6303 13.7844 34.9971 13.7844 34.6066 13.3938Z" fill="#333333"/>
<path fill-rule="evenodd" clip-rule="evenodd" d="M5 27.0001C4.44772 27.0001 4 26.5523 4 26.0001V22.0001C4 21.4478 4.44772 21.0001 5 21.0001C5.55228 21.0001 6 21.4478 6 22.0001V23.0001H8C8.55228 23.0001 9 23.4478 9 24.0001C9 24.5523 8.55228 25.0001 8 25.0001H6V26.0001C6 26.5523 5.55228 27.0001 5 27.0001Z" fill="#333333"/>
<path fill-rule="evenodd" clip-rule="evenodd" d="M39 24.0001C39 23.4478 39.4477 23.0001 40 23.0001H42V22.0001C42 21.4478 42.4477 21.0001 43 21.0001C43.5523 21.0001 44 21.4478 44 22.0001V26.0001C44 26.5523 43.5523 27.0001 43 27.0001C42.4477 27.0001 42 26.5523 42 26.0001V25.0001H40C39.4477 25.0001 39 24.5523 39 24.0001Z" fill="#333333"/>
<path fill-rule="evenodd" clip-rule="evenodd" d="M8.44365 12.6867C8.05313 12.2961 8.05313 11.663 8.44365 11.2724L11.2721 8.44402C11.6626 8.05349 12.2958 8.05349 12.6863 8.44402C13.0768 8.83454 13.0768 9.46771 12.6863 9.85823L11.9792 10.5653L13.3934 11.9796C13.7839 12.3701 13.7839 13.0032 13.3934 13.3938C13.0029 13.7843 12.3697 13.7843 11.9792 13.3938L10.565 11.9796L9.85786 12.6867C9.46734 13.0772 8.83417 13.0772 8.44365 12.6867Z" fill="#333333"/>
<path fill-rule="evenodd" clip-rule="evenodd" d="M34.6066 34.607C34.9971 34.2164 35.6303 34.2164 36.0208 34.607L37.435 36.0212L38.1421 35.3141C38.5327 34.9236 39.1658 34.9236 39.5563 35.3141C39.9469 35.7046 39.9469 36.3378 39.5563 36.7283L36.7279 39.5567C36.3374 39.9472 35.7042 39.9472 35.3137 39.5567C34.9232 39.1662 34.9232 38.533 35.3137 38.1425L36.0208 37.4354L34.6066 36.0212C34.2161 35.6307 34.2161 34.9975 34.6066 34.607Z" fill="#333333"/>
</g>
<defs>
<clipPath id="clip0">
<rect width="48" height="48" fill="white"/>
</clipPath>
</defs>
</svg>
